<svg width="87" height="85" viewBox="0 0 87 85" fill="none" xmlns="http://www.w3.org/2000/svg">
<rect width="72" height="73" rx="5" fill="#EEEFF2"/>
<rect x="14" y="12" width="73" height="73" rx="5" fill="#00B027"/>
<path d="M58.4102 26C57.9248 26 57.5312 26.3936 57.5312 26.8789V30.9219C57.5312 31.4072 57.9248 31.8008 58.4102 31.8008C58.8955 31.8008 59.2891 31.4072 59.2891 30.9219V26.8789C59.2891 26.3936 58.8955 26 58.4102 26Z" fill="white"/>
<path d="M38.1953 53.4219C37.7102 53.4219 37.3164 53.8156 37.3164 54.3008C37.3164 54.7859 37.7102 55.1797 38.1953 55.1797C38.6805 55.1797 39.0742 54.7859 39.0742 54.3008C39.0742 53.8156 38.6805 53.4219 38.1953 53.4219Z" fill="white"/>
<path d="M70.7148 51.6641C70.7148 49.7255 69.1377 48.1484 67.1992 48.1484H60.638C61.6538 45.5466 62.0649 42.4841 61.9856 39.758C61.9705 39.2378 61.9506 38.937 61.9236 38.7476C61.8781 36.8485 60.3188 35.3164 58.4102 35.3164C56.4716 35.3164 54.8945 36.8935 54.8945 38.832V39.7109C54.8945 45.2697 47.7566 48.3929 42.3698 49.7321C41.9625 48.801 41.0328 48.1484 39.9531 48.1484H31.1641C30.6787 48.1484 30.2852 48.542 30.2852 49.0273V70.1211C30.2852 70.6064 30.6787 71 31.1641 71H39.9531C41.0256 71 41.9499 70.356 42.3614 69.4348C42.8075 69.5492 43.2215 69.6573 43.6037 69.7571C46.6725 70.5586 48.3629 71 52.474 71H61.9258C63.8643 71 65.4414 69.4229 65.4414 67.4844C65.4414 66.7616 65.2219 66.0892 64.8464 65.5299C66.2041 65.055 67.1992 63.7577 67.1992 62.2109C67.1992 61.4908 66.9851 60.8162 66.6107 60.2543C67.9625 59.7787 68.957 58.4844 68.957 56.9375C68.957 56.2147 68.7376 55.5423 68.362 54.983C69.7197 54.5081 70.7148 53.2108 70.7148 51.6641ZM40.832 68.3633C40.832 68.8479 40.4378 69.2422 39.9531 69.2422H32.043V49.9062H39.9531C40.4378 49.9062 40.832 50.3005 40.832 50.7852V68.3633ZM67.1992 53.4219C65.3141 53.4219 64.8647 53.4219 62.8047 53.4219C62.3194 53.4219 61.9258 53.8154 61.9258 54.3008C61.9258 54.7861 62.3194 55.1797 62.8047 55.1797H65.4414C66.4107 55.1797 67.1992 55.9682 67.1992 56.9375C67.1992 57.9083 66.4122 58.6953 65.4414 58.6953H61.0469C60.5615 58.6953 60.168 59.0889 60.168 59.5742C60.168 60.0596 60.5615 60.4531 61.0469 60.4531H63.6836C64.6413 60.4531 65.4414 61.2182 65.4414 62.2109C65.4414 63.1818 64.6544 63.9688 63.6836 63.9688C61.7984 63.9688 61.349 63.9688 59.2891 63.9688C58.8037 63.9688 58.4102 64.3623 58.4102 64.8477C58.4102 65.333 58.8037 65.7266 59.2891 65.7266H61.9258C62.895 65.7266 63.6836 66.5151 63.6836 67.4844C63.6836 68.4536 62.895 69.2422 61.9258 69.2422H52.474C48.5886 69.2422 47.0711 68.8459 44.0479 68.0564C43.6051 67.9407 43.1193 67.8139 42.5898 67.6789V51.4905C48.9503 49.9754 56.6523 46.2773 56.6523 39.7109V38.832C56.6523 37.8628 57.4409 37.0742 58.4102 37.0742C59.3777 37.0742 60.1661 37.8615 60.168 38.8293V38.832C60.168 39.214 60.6447 43.9018 58.7331 48.1484H55.7734C55.2881 48.1484 54.8945 48.542 54.8945 49.0273C54.8945 49.5127 55.2881 49.9062 55.7734 49.9062C56.3872 49.9062 66.1974 49.9062 67.1992 49.9062C68.1685 49.9062 68.957 50.6948 68.957 51.6641C68.957 52.6349 68.1701 53.4219 67.1992 53.4219Z" fill="white"/>
<path d="M38.1953 56.9375C37.71 56.9375 37.3164 57.3311 37.3164 57.8164V64.8477C37.3164 65.333 37.71 65.7266 38.1953 65.7266C38.6806 65.7266 39.0742 65.333 39.0742 64.8477V57.8164C39.0742 57.3311 38.6806 56.9375 38.1953 56.9375Z" fill="white"/>
<path d="M51.3789 37.0742H47.8633C47.3779 37.0742 46.9844 37.4678 46.9844 37.9531C46.9844 38.4385 47.3779 38.832 47.8633 38.832H51.3789C51.8642 38.832 52.2578 38.4385 52.2578 37.9531C52.2578 37.4678 51.8642 37.0742 51.3789 37.0742Z" fill="white"/>
<path d="M68.957 37.0742H65.4414C64.9561 37.0742 64.5625 37.4678 64.5625 37.9531C64.5625 38.4385 64.9561 38.832 65.4414 38.832H68.957C69.4424 38.832 69.8359 38.4385 69.8359 37.9531C69.8359 37.4678 69.4424 37.0742 68.957 37.0742Z" fill="white"/>
<path d="M66.4893 29.8741C66.146 29.531 65.5897 29.531 65.2463 29.8741L62.7608 32.3596C62.4176 32.7028 62.4176 33.2593 62.7608 33.6026C63.1042 33.9458 63.6605 33.9457 64.0039 33.6026L66.4893 31.1171C66.8325 30.7739 66.8325 30.2174 66.4893 29.8741Z" fill="white"/>
<path d="M54.0596 32.3596L51.5742 29.8741C51.2309 29.531 50.6745 29.531 50.3311 29.8741C49.9879 30.2173 49.9879 30.7738 50.3311 31.1171L52.8166 33.6026C53.1601 33.9458 53.7163 33.9457 54.0596 33.6026C54.4028 33.2594 54.4028 32.7029 54.0596 32.3596Z" fill="white"/>
</svg>
