<svg width="87" height="85" viewBox="0 0 87 85" fill="none" xmlns="http://www.w3.org/2000/svg">
<rect width="72" height="73" rx="5" fill="#EEEFF2" fill-opacity="0.6"/>
<rect x="14" y="12" width="73" height="73" rx="5" fill="white"/>
<g clip-path="url(#clip0_3602_209)">
<path d="M40.1565 52.4544C39.9587 52.3845 39.7564 52.3112 39.5547 52.2348V49.0142C40.0616 49.1356 40.3637 49.3919 40.3906 49.4153C40.6673 49.6659 41.0948 49.6471 41.3484 49.3721C41.6034 49.0956 41.586 48.6647 41.3095 48.4097C41.2708 48.374 40.6201 47.7877 39.5547 47.6279V46.9702C39.5547 46.5941 39.2498 46.2891 38.8737 46.2891C38.4976 46.2891 38.1926 46.5941 38.1926 46.9702V47.6802C38.0916 47.7024 37.989 47.728 37.8842 47.7597C36.91 48.0532 36.182 48.887 35.9844 49.9357C35.8043 50.8918 36.1105 51.8138 36.7838 52.3419C37.1406 52.6217 37.5846 52.878 38.1927 53.1487V57.2323C37.6666 57.1936 37.3022 57.0652 36.7051 56.6745C36.3903 56.4685 35.9681 56.5568 35.7623 56.8716C35.5564 57.1863 35.6446 57.6084 35.9594 57.8143C36.83 58.3838 37.4249 58.5536 38.1927 58.5969V59.3334C38.1927 59.7095 38.4977 60.0144 38.8738 60.0144C39.2499 60.0144 39.5548 59.7095 39.5548 59.3334V58.5427C41.0828 58.2429 41.9753 56.983 42.1731 55.8061C42.4273 54.293 41.6359 52.9774 40.1565 52.4544ZM37.6242 51.2702C37.3527 51.0571 37.2371 50.6425 37.3228 50.1879C37.3995 49.7806 37.6684 49.2913 38.1925 49.0933V51.6334C37.9787 51.5174 37.7852 51.3964 37.6242 51.2702ZM40.8297 55.5803C40.7249 56.2038 40.2907 56.8647 39.5546 57.128V53.6858C39.6037 53.7034 39.6518 53.7208 39.7024 53.7387C40.961 54.1835 40.8835 55.2607 40.8297 55.5803Z" fill="black"/>
<path d="M72.9625 51.578C72.8453 51.0458 72.4701 50.6159 71.9587 50.4279L70.0093 49.7114C69.6565 49.5817 69.265 49.7627 69.1352 50.1157C69.0055 50.4688 69.1864 50.8602 69.5395 50.9899L71.4888 51.7064C71.5903 51.7436 71.6222 51.8253 71.6321 51.8707C71.6421 51.916 71.6475 52.0035 71.5709 52.08L54.1704 69.4806C54.0937 69.5573 54.0061 69.5518 53.961 69.5419C53.9156 69.5319 53.834 69.5 53.7967 69.3984L51.3514 62.745C51.1902 62.3066 50.8463 61.9628 50.408 61.8017L43.7547 59.3564C43.6532 59.3191 43.6213 59.2375 43.6113 59.1921C43.6013 59.1468 43.596 59.0593 43.6725 58.9828L61.0732 41.5822C61.1498 41.5056 61.2371 41.511 61.2825 41.521C61.3278 41.531 61.4095 41.5628 61.4467 41.6643L63.892 48.3176C64.0531 48.7561 64.3971 49.0999 64.8355 49.261L66.5277 49.8829C66.8807 50.0128 67.2721 49.8317 67.4019 49.4786C67.5316 49.1256 67.3506 48.7342 66.9975 48.6045L65.3052 47.9824C65.2427 47.9595 65.1936 47.9104 65.1706 47.8478L62.7254 41.1945C62.5374 40.683 62.1075 40.3079 61.5753 40.1907C61.0434 40.0735 60.4955 40.2338 60.1101 40.6191L59.4513 41.2778V34.521C59.4513 33.6448 58.7384 32.9319 57.8622 32.9319H50.9257C51.5603 31.6981 51.362 30.1433 50.3297 29.111C49.4458 28.2272 48.1642 27.9369 47.0159 28.304C46.5724 27.0176 45.3504 26.0905 43.9153 26.0905C42.4802 26.0905 41.2583 27.0174 40.8147 28.3037C39.6665 27.9358 38.3862 28.2256 37.501 29.1109C36.8815 29.7303 36.5404 30.5538 36.5404 31.4298C36.5404 31.9611 36.6667 32.4729 36.9037 32.9318H36.3324C35.9563 32.9318 35.6513 33.2367 35.6513 33.6128C35.6513 33.9889 35.9563 34.2939 36.3324 34.2939H41.1857V40.7398C40.4322 40.6026 39.6652 40.5317 38.894 40.5317C37.4744 40.5317 36.1386 40.7529 34.8602 41.1786L29.7415 41.1788V34.5209C29.7415 34.3957 29.8433 34.2939 29.9685 34.2939H33.0735C33.4496 34.2939 33.7545 33.9889 33.7545 33.6128C33.7545 33.2367 33.4496 32.9318 33.0735 32.9318H29.9683C29.0921 32.9318 28.3792 33.6447 28.3792 34.5209V45.9573C28.3792 45.9614 28.3797 45.9655 28.3798 45.9697C26.8817 48.0761 26 50.6498 26 53.4255C26 56.1951 26.8686 58.8364 28.5118 61.0641C28.6454 61.2452 28.8515 61.3409 29.0604 61.3409C29.2009 61.3409 29.3425 61.2977 29.4641 61.2079C29.7669 60.9846 29.8312 60.5583 29.6079 60.2555C28.1386 58.2637 27.362 55.9019 27.362 53.4255C27.362 47.0669 32.5351 41.8938 38.8937 41.8938C44.2234 41.8938 48.8051 45.4846 50.0856 50.6434L48.9326 51.7963C48.5877 49.6551 47.5671 47.683 45.9844 46.1417C44.0732 44.2808 41.555 43.2559 38.8937 43.2559C33.2862 43.2559 28.7241 47.8179 28.7241 53.4255C28.7241 59.033 33.2861 63.5951 38.8937 63.5951C41.2081 63.5951 43.4498 62.803 45.2508 61.3575L46.7106 61.894C44.5885 63.851 41.7924 64.9572 38.8937 64.9572C36.2628 64.9572 33.6876 64.0439 31.6426 62.3857C31.3505 62.1487 30.9216 62.1935 30.6847 62.4857C30.4477 62.7779 30.4925 63.2067 30.7847 63.4437C33.0716 65.2981 35.9514 66.3193 38.8937 66.3193C42.3654 66.3193 45.705 64.9012 48.1277 62.4148L49.9381 63.0802C50.0007 63.1032 50.0498 63.1523 50.0727 63.2149L52.518 69.8682C52.706 70.3797 53.1359 70.7549 53.6679 70.872C53.7827 70.8972 53.8982 70.9096 54.0126 70.9096C54.4288 70.9096 54.8309 70.746 55.1333 70.4437L72.534 53.0431C72.9193 52.6578 73.0795 52.1102 72.9625 51.578ZM29.7413 44.3531V42.5411H31.989C31.173 43.0606 30.4193 43.6691 29.7413 44.3531ZM58.0892 34.521V41.1789H46.6448V34.294H57.8621C57.9874 34.294 58.0892 34.3959 58.0892 34.521ZM49.3665 30.0742C50.114 30.8218 50.114 32.0382 49.3666 32.7856C49.3368 32.8155 49.2789 32.8651 49.1783 32.9319H45.8602C46.8487 31.0724 47.105 30.1625 47.1712 29.7053C47.9008 29.3486 48.7822 29.4899 49.3665 30.0742ZM43.9152 27.4525C44.9724 27.4525 45.8325 28.3127 45.8325 29.3698C45.8325 29.5666 45.7205 30.4012 44.3088 32.9318H43.5216C42.1102 30.4019 41.9979 29.567 41.9979 29.3698C41.9979 28.3127 42.8579 27.4525 43.9152 27.4525ZM38.464 32.7857C38.1019 32.4235 37.9024 31.942 37.9024 31.4299C37.9024 30.9178 38.1019 30.4363 38.464 30.0742C39.0493 29.4889 39.9294 29.3484 40.6592 29.7057C40.7255 30.163 40.9816 31.0725 41.9702 32.9319H38.6522C38.5517 32.8652 38.4939 32.8156 38.464 32.7857ZM42.5476 34.294H45.2828V41.1789H42.9246C42.9216 41.1789 42.9187 41.1793 42.9157 41.1794C42.7936 41.1392 42.6708 41.1014 42.5476 41.0648V34.294ZM46.9524 43.3668C46.5819 43.0695 46.1957 42.7942 45.7966 42.5411H58.0892V42.6399L55.4528 45.2763H48.8761C48.3056 44.5774 47.6614 43.9359 46.9524 43.3668ZM49.8487 46.6384H54.0907L51.1882 49.5408C50.8645 48.5215 50.4128 47.5459 49.8487 46.6384ZM38.8938 62.2331C34.0373 62.2331 30.0863 58.2821 30.0863 53.4256C30.0863 48.5692 34.0374 44.6182 38.8938 44.6182C43.5691 44.6182 47.4874 48.3826 47.6922 53.0371L42.7094 58.0198C42.3241 58.4051 42.164 58.9528 42.2811 59.485C42.3982 60.0171 42.7735 60.447 43.2849 60.635L43.7142 60.7928C42.288 61.7277 40.614 62.2331 38.8938 62.2331Z" fill="black"/>
<path d="M59.394 61.2691C59.4797 61.2691 59.5671 61.2527 59.6514 61.2182C59.9996 61.0759 60.1664 60.6783 60.0241 60.3301L56.1027 50.737C55.9605 50.3889 55.5629 50.2217 55.2146 50.3643C54.8664 50.5065 54.6995 50.9042 54.8419 51.2524L58.7632 60.8455C58.8711 61.1094 59.1255 61.2691 59.394 61.2691Z" fill="black"/>
<path d="M51.2969 53.577C50.8197 54.0541 50.5864 54.7094 50.6398 55.422C50.6904 56.0961 50.9959 56.7452 51.5 57.2492C52.0041 57.7534 52.653 58.0589 53.3273 58.1093C53.3941 58.1144 53.4605 58.1169 53.5262 58.1169C54.1612 58.1169 54.7398 57.8846 55.1723 57.4523C55.6495 56.9751 55.8828 56.3199 55.8294 55.6072C55.7788 54.933 55.4733 54.2841 54.9692 53.7799C54.4651 53.2758 53.8162 52.9703 53.1419 52.9198C52.4288 52.8661 51.774 53.0998 51.2969 53.577ZM54.0061 54.7432C54.2798 55.0169 54.445 55.3599 54.4712 55.7091C54.4945 56.0199 54.4014 56.2969 54.2091 56.4892C54.0169 56.6814 53.7395 56.7742 53.4291 56.7512C53.0799 56.725 52.7368 56.5599 52.4631 56.2862C52.1894 56.0124 52.0242 55.6694 51.9981 55.3203C51.9747 55.0095 52.0678 54.7325 52.2601 54.5402C52.433 54.3673 52.6743 54.2747 52.9472 54.2747C52.9778 54.2747 53.0088 54.2759 53.0401 54.2782C53.3893 54.3043 53.7324 54.4694 54.0061 54.7432C54.006 54.7432 54.006 54.7432 54.0061 54.7432Z" fill="black"/>
<path d="M61.976 58.907C62.6111 58.907 63.1897 58.6748 63.6221 58.2424C64.5785 57.286 64.4874 55.6386 63.4191 54.5701C63.4191 54.5701 63.4191 54.5701 63.419 54.5701C62.3507 53.5016 60.7033 53.4107 59.7468 54.367C58.7903 55.3235 58.8814 56.9708 59.9498 58.0393C60.454 58.5434 61.1029 58.8489 61.7771 58.8994C61.844 58.9045 61.9103 58.907 61.976 58.907ZM60.71 55.3302C60.8904 55.1499 61.135 55.0624 61.3981 55.0624C61.7553 55.0624 62.1464 55.2239 62.4559 55.5333C62.9932 56.0707 63.0843 56.854 62.6588 57.2794C62.4666 57.4715 62.1895 57.5646 61.8789 57.5414C61.5297 57.5152 61.1866 57.35 60.9129 57.0763C60.3757 56.5388 60.2846 55.7556 60.71 55.3302Z" fill="black"/>
</g>
<defs>
<clipPath id="clip0_3602_209">
<rect width="47" height="47" fill="white" transform="translate(26 25)"/>
</clipPath>
</defs>
</svg>
