<svg width="87" height="85" viewBox="0 0 87 85" fill="none" xmlns="http://www.w3.org/2000/svg">
<rect width="72" height="73" rx="5" fill="#EEEFF2"/>
<rect x="14" y="12" width="73" height="73" rx="5" fill="#00B027"/>
<path d="M68.4666 46.7797C66.8674 45.9802 63.8688 45.9709 63.7419 45.9709C63.3617 45.9709 63.0535 46.2791 63.0535 46.6594C63.0535 47.0396 63.3617 47.3478 63.7419 47.3478C64.5157 47.3479 66.7622 47.4671 67.8509 48.0113C67.9497 48.0608 68.0547 48.0841 68.1582 48.0841C68.4107 48.0841 68.6539 47.9446 68.7745 47.7035C68.9446 47.3634 68.8068 46.9498 68.4666 46.7797Z" fill="white"/>
<path d="M71.899 56.5819L69.0555 55.7695C68.9328 55.7344 68.8471 55.6208 68.8471 55.4931V54.544C69.0784 54.3837 69.2991 54.2043 69.5053 54.0041C70.505 53.034 71.0555 51.7328 71.0555 50.3401V49.0304L71.3305 48.4806C71.6322 47.8771 71.7916 47.2013 71.7916 46.5266V42.9787C71.7916 42.5985 71.4834 42.2902 71.1032 42.2902H64.4779C62.0688 42.2902 60.1087 44.2502 60.1087 46.6594V46.7004C60.1087 47.2615 60.2414 47.8233 60.4923 48.3251L60.8449 49.0303V50.1548C60.8449 51.937 61.7231 53.536 63.0533 54.4982L63.0535 55.4929C63.0535 55.6463 63.0535 55.7098 62.485 55.8723L61.0976 56.2687L57.0841 54.8093C57.0985 54.6199 57.0347 54.4273 56.8965 54.2822L55.614 52.9348V50.6729C55.7496 50.5612 55.8832 50.4464 56.0128 50.3251C57.6307 48.8086 58.5586 46.6675 58.5586 44.4509V42.6445C59.0471 41.5814 59.2947 40.4565 59.2947 39.2979V31.9367C59.2947 31.5565 58.9864 31.2482 58.6062 31.2482H48.3003C44.6734 31.2482 41.7228 34.1989 41.7228 37.8258V39.2981C41.7228 40.4566 41.9703 41.5816 42.4589 42.6447V44.1989C42.4589 46.7726 43.6032 49.0912 45.4034 50.6198V52.9349L44.1209 54.2823C43.9828 54.4274 43.9189 54.62 43.9333 54.8094L39.6973 56.3496C39.3904 56.4613 39.1052 56.6124 38.8462 56.7956L38.181 56.463C40.1611 55.6011 40.7884 54.3889 40.8185 54.3287C40.9154 54.1349 40.9154 53.9067 40.8185 53.7129C40.3221 52.7203 40.262 50.9007 40.2137 49.4388C40.1976 48.9521 40.1824 48.4923 40.1533 48.0829C39.9186 44.7806 37.4081 42.2902 34.3136 42.2902C31.2192 42.2902 28.7086 44.7805 28.474 48.0829C28.4449 48.4924 28.4296 48.9522 28.4136 49.439C28.3653 50.9008 28.3051 52.7202 27.8088 53.7129C27.7119 53.9066 27.7119 54.1348 27.8088 54.3286C27.8389 54.3888 28.4649 55.5985 30.4489 56.4614L28.6013 57.3852C27.6136 57.8794 27 58.8722 27 59.9764V65.0628C27 65.443 27.3083 65.7513 27.6885 65.7513C28.0687 65.7513 28.377 65.443 28.377 65.0628V59.9764C28.377 59.397 28.6989 58.8761 29.2171 58.6169L31.5178 57.4666L32.3181 58.2271C32.8777 58.7589 33.5955 59.0247 34.3136 59.0247C35.0316 59.0247 35.7498 58.7587 36.3092 58.2271L37.1094 57.4667L37.8596 57.8418C37.5063 58.407 37.3059 59.0698 37.3059 59.764V65.063C37.3059 65.4432 37.6141 65.7515 37.9943 65.7515C38.3746 65.7515 38.6828 65.4432 38.6828 65.063V59.764C38.6828 58.8189 39.2796 57.9668 40.1679 57.6438L44.634 56.0198L46.4932 58.8087C46.7308 59.1652 47.1117 59.3939 47.5381 59.4361C47.5856 59.4408 47.6329 59.4431 47.6801 59.4431C48.0563 59.4431 48.4166 59.295 48.6859 59.0258L49.8202 57.8915V65.0631C49.8202 65.4433 50.1284 65.7516 50.5086 65.7516C50.8889 65.7516 51.1971 65.4433 51.1971 65.0631V57.8915L52.3313 59.0258C52.6006 59.2951 52.9609 59.4432 53.3372 59.4432C53.3843 59.4432 53.4316 59.4409 53.4791 59.4362C53.9056 59.394 54.2864 59.1653 54.5241 58.8088L56.3834 56.02L60.8494 57.644C61.7376 57.967 62.3345 58.8191 62.3345 59.7642V65.0632C62.3345 65.4434 62.6427 65.7516 63.0229 65.7516C63.4032 65.7516 63.7114 65.4434 63.7114 65.0632V59.7642C63.7114 58.8069 63.3311 57.9092 62.6931 57.2452L62.8632 57.1966C63.0348 57.1476 63.2689 57.0805 63.5039 56.9653L65.2617 58.7231V65.0632C65.2617 65.4434 65.5699 65.7516 65.9501 65.7516C66.3304 65.7516 66.6386 65.4434 66.6386 65.0632V58.7231L68.3842 56.9775C68.477 57.0247 68.5745 57.0645 68.6772 57.0938L71.5207 57.9062C72.1697 58.0917 72.623 58.6927 72.623 59.3677V65.0632C72.623 65.4434 72.9313 65.7516 73.3115 65.7516C73.6917 65.7516 74 65.4434 74 65.0632V59.3677C74 58.0809 73.136 56.9354 71.899 56.5819ZM31.4168 55.3658C30.129 54.9025 29.483 54.2847 29.2073 53.9473C29.3953 53.4558 29.5172 52.8929 29.5997 52.2987C29.9794 53.2091 30.6152 53.9862 31.4168 54.5407V55.3658ZM35.3609 57.2291C34.7736 57.7871 33.8537 57.787 33.2667 57.229L32.6264 56.6206C32.7345 56.4182 32.7939 56.1887 32.7939 55.9483V55.2145C33.2741 55.3646 33.7847 55.4455 34.3138 55.4455C34.8423 55.4455 35.3526 55.3642 35.8337 55.2149L35.8336 55.9482C35.8336 56.1887 35.8929 56.4183 36.0011 56.6208L35.3609 57.2291ZM34.314 54.0686C32.2581 54.0686 30.5857 52.396 30.5857 50.3402C30.5857 49.96 30.2774 49.6518 29.8972 49.6518C29.8586 49.6518 29.821 49.6557 29.7842 49.6619C29.7862 49.6026 29.7881 49.5433 29.7902 49.4847C29.8055 49.0113 29.8203 48.5641 29.8475 48.1806C29.9355 46.9436 30.4298 45.8036 31.2395 44.9707C32.0564 44.1302 33.1482 43.6673 34.3138 43.6673C35.4795 43.6673 36.5712 44.1302 37.3882 44.9707C38.1978 45.8036 38.6922 46.9436 38.7801 48.1806C38.8073 48.5641 38.8222 49.0111 38.8378 49.4844C38.8391 49.5251 38.8405 49.5663 38.8419 49.6072C38.0928 48.4532 36.936 47.6027 35.4413 47.1224C34.0604 46.6787 32.8727 46.7062 32.8226 46.7075C32.6423 46.7125 32.4712 46.788 32.3461 46.9178L31.1039 48.2061C30.84 48.4798 30.8478 48.9156 31.1216 49.1796C31.3953 49.4435 31.8312 49.4355 32.0951 49.1618L33.1287 48.0899C34.0189 48.1334 36.8827 48.4665 37.9964 50.919C37.7162 52.7263 36.1628 54.0686 34.314 54.0686ZM37.2105 55.3681L37.2106 54.547C38.0115 53.9956 38.6483 53.2199 39.0282 52.3027C39.1108 52.8955 39.2326 53.4571 39.4202 53.9475C39.146 54.2816 38.497 54.9049 37.2105 55.3681ZM43.8358 44.1988V42.4907C43.8358 42.387 43.8124 42.2847 43.7673 42.1913C43.3243 41.2739 43.0997 40.3005 43.0997 39.2981V37.8258C43.0997 34.9582 45.4327 32.6253 48.3003 32.6253H57.9177V39.2982C57.9177 40.3006 57.6931 41.274 57.2501 42.1914C57.205 42.2848 57.1816 42.3871 57.1816 42.4908V44.4511C57.1816 46.3156 56.4321 48.0449 55.0711 49.3206C54.9012 49.4798 54.7249 49.6291 54.5426 49.7682C54.5385 49.7709 54.5347 49.7739 54.5307 49.7768C53.2557 50.7448 51.6941 51.2152 50.0632 51.1096C46.5712 50.8835 43.8358 47.848 43.8358 44.1988ZM47.7123 58.052C47.7075 58.0568 47.6964 58.0681 47.6739 58.0657C47.6515 58.0635 47.6427 58.0504 47.639 58.0447L45.4978 54.8329L46.1868 54.1089L49.4351 56.3292L47.7123 58.052ZM50.5087 55.3951L46.7804 52.8467V51.5615C47.7451 52.083 48.8253 52.4092 49.9741 52.4835C50.1556 52.4953 50.336 52.501 50.5158 52.501C51.8322 52.501 53.0992 52.1864 54.237 51.589V52.8467L50.5087 55.3951ZM53.3785 58.0448C53.3747 58.0505 53.3659 58.0637 53.3435 58.0659C53.321 58.0687 53.31 58.0569 53.3051 58.0522L51.5824 56.3294L54.8306 54.109L55.5197 54.833L53.3785 58.0448ZM65.9501 57.4639L64.3878 55.9017C64.415 55.7778 64.4305 55.6422 64.4304 55.4927L64.4303 55.2022C64.8638 55.3444 65.3208 55.4289 65.7936 55.443C65.8467 55.4447 65.8993 55.4454 65.9522 55.4454C66.4747 55.4454 66.9847 55.3665 67.4701 55.2158V55.4931C67.4701 55.6304 67.4874 55.765 67.5199 55.8943L65.9501 57.4639ZM68.5464 53.016C67.8167 53.7241 66.8528 54.0981 65.835 54.0667C63.8427 54.007 62.2218 52.2521 62.2218 50.155V48.8679C62.2218 48.761 62.1969 48.6556 62.1491 48.56L61.7238 47.7094C61.568 47.3978 61.4857 47.049 61.4857 46.7005V46.6595C61.4857 45.0095 62.828 43.6672 64.4779 43.6672H70.4147V46.5267C70.4147 46.9888 70.3055 47.4516 70.0988 47.8649L69.7513 48.56C69.7034 48.6557 69.6786 48.761 69.6786 48.8679V50.3401C69.6786 51.3573 69.2765 52.3075 68.5464 53.016Z" fill="white"/>
<path d="M70.3672 59.9575C69.987 59.9575 69.6787 60.2658 69.6787 60.646V65.0628C69.6787 65.443 69.987 65.7513 70.3672 65.7513C70.7474 65.7513 71.0557 65.443 71.0557 65.0628V60.646C71.0557 60.2659 70.7474 59.9575 70.3672 59.9575Z" fill="white"/>
<path d="M30.6328 60.8676C30.2526 60.8676 29.9443 61.1758 29.9443 61.556V65.0628C29.9443 65.443 30.2526 65.7512 30.6328 65.7512C31.013 65.7512 31.3213 65.443 31.3213 65.0628V61.556C31.3213 61.1759 31.013 60.8676 30.6328 60.8676Z" fill="white"/>
<path d="M56.1485 39.5475C53.5446 36.9436 48.0965 37.4414 45.8748 37.7762C45.1751 37.8817 44.6672 38.4739 44.6672 39.1843V40.7704C44.6672 41.1506 44.9755 41.4589 45.3557 41.4589C45.7359 41.4589 46.0442 41.1506 46.0442 40.7704V39.1842C46.0442 39.1608 46.0596 39.1408 46.0802 39.1377C46.9676 39.0039 48.7285 38.7976 50.553 38.9192C52.6999 39.0621 54.255 39.6011 55.1749 40.5211C55.4437 40.7899 55.8797 40.7899 56.1485 40.5211C56.4173 40.2522 56.4173 39.8162 56.1485 39.5475Z" fill="white"/>
<path d="M42.4114 61.4298C42.0312 61.4298 41.7229 61.7381 41.7229 62.1183V65.0629C41.7229 65.4431 42.0312 65.7513 42.4114 65.7513C42.7916 65.7513 43.0999 65.4431 43.0999 65.0629V62.1183C43.0999 61.7382 42.7916 61.4298 42.4114 61.4298Z" fill="white"/>
<path d="M58.6064 61.4298C58.2262 61.4298 57.918 61.7381 57.918 62.1183V65.0629C57.918 65.4431 58.2262 65.7513 58.6064 65.7513C58.9867 65.7513 59.2949 65.4431 59.2949 65.0629V62.1183C59.2949 61.7382 58.9867 61.4298 58.6064 61.4298Z" fill="white"/>
</svg>
