<svg width="90" height="57" viewBox="0 0 90 57" fill="none" xmlns="http://www.w3.org/2000/svg">
<path d="M7.31348 15.2045L8.04194 14.6592C10.2574 19.3334 11.1701 28.0358 11.1701 28.0358L9.71875 28.2525C9.71875 28.2525 9.34215 20.1113 7.31348 15.2045Z" fill="white"/>
<path d="M8.01413 12.6111C8.14328 12.8326 8.24158 13.0904 8.28524 13.3782C8.36143 13.88 8.26374 14.3486 8.05462 14.6889C10.2601 19.37 11.1694 28.0359 11.1694 28.0359L10.491 28.1372C10.3263 26.5503 9.53689 19.6527 7.88548 15.3139C7.82444 15.1535 7.68738 15.0856 7.57031 15.138C7.49991 15.1696 7.42556 15.192 7.34759 15.2036C6.70612 15.2994 6.07963 14.67 5.92285 13.7912C6.61216 13.3769 7.30616 12.9753 8.01413 12.6111Z" fill="white"/>
<path d="M6.99353 13.5601C6.86433 11.3094 7.23385 8.69833 7.39246 7.71309C7.42009 7.54148 7.28587 7.38335 7.16908 7.4509C6.71117 7.71574 5.84809 8.39858 5.57642 9.88008C5.45399 10.5477 5.51825 11.718 6.99353 13.5601Z" fill="white"/>
<path d="M6.99316 13.5601C9.3658 12.7183 11.5822 13.3262 12.3883 13.6095C12.5001 13.6488 12.5689 13.4777 12.4924 13.3538C12.0744 12.6768 11.0789 11.317 9.74886 11.162C8.8131 11.053 7.4127 11.4351 6.99316 13.5601Z" fill="white"/>
<path d="M6.99289 13.5582C5.27661 14.8158 4.37625 16.8767 4.03059 17.8387C3.96742 18.0145 3.7687 17.9572 3.7345 17.7545C3.58884 16.8907 3.3791 15.1284 4.05235 14.082C5.52851 11.788 6.99289 13.5582 6.99289 13.5582Z" fill="white"/>
<path d="M2.4242 11.1869C2.90577 10.6845 3.86429 9.90294 4.92995 10.24C5.82126 10.5219 6.32639 11.2171 6.61438 11.899C6.54577 10.9889 6.6865 9.84301 7.49645 8.82695C8.38871 7.70772 9.56951 7.69236 10.311 7.83845C10.485 7.87275 10.5476 8.18819 10.4034 8.30854C9.6139 8.96719 7.8066 11.3608 6.99354 13.5602C5.68436 12.6085 3.35216 11.6353 2.53376 11.5783C2.38423 11.5678 2.31119 11.3049 2.4242 11.1869Z" fill="white"/>
<path fill-rule="evenodd" clip-rule="evenodd" d="M63.4548 0L46.4113 5.19259L37.8008 14.0363L37.8203 14.0427L41.7223 18.0476L46.2772 17.9982L63.4548 0Z" fill="white"/>
<path fill-rule="evenodd" clip-rule="evenodd" d="M72.8678 5.5614L72.6128 5.65999L70.8662 6.33747V7.27864L72.7598 9.24679L72.8678 9.35825V5.5614Z" fill="white"/>
<path fill-rule="evenodd" clip-rule="evenodd" d="M75.5554 6.33747L72.8682 5.5614V9.35825L75.5554 12.1497V6.33747Z" fill="white"/>
<path fill-rule="evenodd" clip-rule="evenodd" d="M63.8742 0.861938L62.502 2.31124L75.3776 15.6058V18.4121H80.7776L63.8742 0.861938Z" fill="white"/>
<path fill-rule="evenodd" clip-rule="evenodd" d="M16.624 14.3257L16.8229 14.4051L18.1805 14.9303V15.6614L16.7083 17.1921L16.624 17.2779V14.3257Z" fill="white"/>
<path fill-rule="evenodd" clip-rule="evenodd" d="M14.5361 14.9304L16.6245 14.3279V17.278L14.5361 19.4476V14.9304Z" fill="white"/>
<path fill-rule="evenodd" clip-rule="evenodd" d="M23.5695 10.7474L24.6418 11.8644L14.6715 22.1338L15.1126 27.8581L1.89746 30.0857L14.4381 27.1313L13.4674 23.8575H10.8863L23.5695 10.7474Z" fill="white"/>
<path d="M24.6395 19.0917H22.9814V20.7361H24.6395V19.0917Z" fill="white"/>
<path d="M26.8642 19.0917H25.2061V20.7361H26.8642V19.0917Z" fill="white"/>
<path d="M24.6395 21.2806H22.9814V22.9229H24.6395V21.2806Z" fill="white"/>
<path d="M26.8642 21.2806H25.2061V22.9229H26.8642V21.2806Z" fill="white"/>
<path fill-rule="evenodd" clip-rule="evenodd" d="M71.5615 16.699V17.4965L75.0295 20.9354V20.3008L71.5615 16.699Z" fill="white"/>
<path fill-rule="evenodd" clip-rule="evenodd" d="M66.4605 11.3928L65.4141 12.4626L74.898 22.2346L74.4592 27.8582L86.6755 30.4309L75.0879 27.2021L75.9679 24.31H78.8929L66.4605 11.3928Z" fill="white"/>
<path fill-rule="evenodd" clip-rule="evenodd" d="M23.9395 10.0057L37.1869 14.0427L45.5726 22.6549L53.4783 14.5337L66.084 10.6939L54.1809 22.895V24.0034H36.2725V22.895L23.9395 10.0057Z" fill="white"/>
<path fill-rule="evenodd" clip-rule="evenodd" d="M38.543 14.0299L46.6973 5.65354L61.6937 1.08484L46.0487 17.4773L41.9435 17.5224L38.543 14.0299Z" fill="white"/>
<path fill-rule="evenodd" clip-rule="evenodd" d="M36.8023 23.4803V22.6849L25.708 11.0927L36.9018 14.5036L45.5728 23.4074L53.7638 14.9968L64.2765 11.7916L53.6536 22.6827V23.4803H36.8023Z" fill="white"/>
<path d="M66.7884 19.3403H65.2129V20.9033H66.7884V19.3403Z" fill="white"/>
<path d="M64.6595 19.3405H63.084V20.9034H64.6595V19.3405Z" fill="white"/>
<path d="M66.7884 21.4307H65.2129V22.9936H66.7884V21.4307Z" fill="white"/>
<path d="M64.6595 21.4307H63.084V22.9936H64.6595V21.4307Z" fill="white"/>
<path d="M1.90436 31.6358C1.9022 31.6358 1.89788 31.6358 1.89355 31.638C9.54417 30.1972 17.2402 29.0867 24.9968 28.3856C31.4346 27.8024 37.8854 27.6181 44.3449 27.468C55.4328 27.2086 66.6718 27.8968 77.576 29.9528C80.633 30.5295 83.6682 31.2198 86.6796 31.9895C77.1828 29.8113 67.6103 29.1038 57.8757 28.6943C53.3661 28.5057 48.8609 28.4906 44.3492 28.4885C37.9049 28.6022 31.4692 28.8358 25.0378 29.2732C17.2813 29.8434 9.5831 30.3966 1.90436 31.6358Z" fill="white"/>
<path d="M5.62962 46.2172C4.14005 46.2172 2.9738 45.7878 2.13087 44.9289C1.29948 44.07 0.883789 42.8676 0.883789 41.3217C0.883789 39.8215 1.21288 38.4645 1.87106 37.2506C2.54079 36.0253 3.44145 35.0634 4.57306 34.3649C5.70469 33.6663 6.95177 33.317 8.3143 33.317C9.14569 33.317 9.79807 33.4487 10.2715 33.7121C10.745 33.9755 10.9817 34.3419 10.9817 34.8115C10.9817 35.2008 10.8258 35.5329 10.514 35.8078C10.2022 36.0712 9.81539 36.2028 9.35353 36.2028C8.26813 36.2028 7.48291 35.7276 6.99794 34.7771C6.24736 35.0977 5.57765 35.5844 4.98876 36.2372C4.39986 36.8899 3.93798 37.6687 3.60311 38.5733C3.26825 39.4665 3.10082 40.4285 3.10082 41.4591C3.10082 42.5699 3.32021 43.4402 3.759 44.0701C4.19779 44.6999 4.80401 45.0148 5.57765 45.0148C6.46679 45.0148 7.19426 44.6999 7.76004 44.0701C8.33741 43.4402 8.66071 42.6386 8.72999 41.6652C9.67683 41.6652 10.1503 42.0603 10.1503 42.8505C10.1503 43.4574 9.94243 44.0185 9.52674 44.5338C9.12257 45.0492 8.57411 45.4614 7.88129 45.7706C7.18846 46.0684 6.43789 46.2172 5.62962 46.2172ZM14.0377 46.2172C13.3217 46.2172 12.9638 45.7649 12.9638 44.8602C12.9638 44.2991 13.1485 42.8275 13.518 40.4456C13.8991 38.0637 14.2628 35.9394 14.6092 34.0728L13.8471 33.214C14.1127 32.9849 14.4302 32.8075 14.7998 32.6815C15.1808 32.5441 15.5272 32.4754 15.839 32.4754C16.1623 32.4754 16.3932 32.5498 16.5318 32.6987C16.6704 32.8361 16.7397 33.0766 16.7397 33.4201C16.7397 33.6148 16.6704 34.0442 16.5318 34.7084C16.3932 35.3611 16.3066 35.7848 16.272 35.9795C15.8909 37.8232 15.5792 39.4608 15.3367 40.8922C15.1057 42.3122 14.9903 43.5777 14.9903 44.6884C14.9903 44.906 15.0191 45.1121 15.0769 45.3068C15.1462 45.49 15.2328 45.6332 15.3367 45.7363C14.9788 46.0569 14.5457 46.2172 14.0377 46.2172ZM28.2578 37.9377C28.2578 39.1172 27.6458 40.0448 26.4218 40.7205C25.2094 41.3846 23.4773 41.7454 21.2257 41.8026V42.129C21.2257 43.0452 21.3989 43.7666 21.7453 44.2934C22.0917 44.8087 22.5651 45.0663 23.1656 45.0663C23.9161 45.0663 24.5281 44.8316 25.0015 44.3621C25.475 43.8925 25.7348 43.2685 25.781 42.4897C26.7163 42.4897 27.1839 42.8333 27.1839 43.5204C27.1839 43.9784 26.9992 44.4193 26.6297 44.843C26.2602 45.2553 25.7521 45.5874 25.1055 45.8393C24.4704 46.0912 23.766 46.2172 22.9924 46.2172C21.7684 46.2172 20.81 45.8451 20.1172 45.1007C19.4243 44.3563 19.0779 43.3314 19.0779 42.0259C19.0779 40.7892 19.3493 39.6727 19.892 38.6764C20.4347 37.6801 21.1852 36.9014 22.1437 36.3403C23.1021 35.7677 24.1702 35.4814 25.348 35.4814C26.2602 35.4814 26.9703 35.6989 27.4784 36.1341C27.998 36.5693 28.2578 37.1705 28.2578 37.9377ZM25.0535 36.5636C24.4646 36.5636 23.9104 36.7525 23.3907 37.1304C22.8827 37.4969 22.4439 38.0065 22.0744 38.6592C21.7164 39.3005 21.4682 40.0276 21.3296 40.8407C22.9231 40.8064 24.1586 40.5315 25.0362 40.0162C25.9253 39.5009 26.3699 38.7909 26.3699 37.8862C26.3699 37.4854 26.2486 37.1648 26.0061 36.9243C25.7637 36.6838 25.4461 36.5636 25.0535 36.5636ZM39.1939 44.843C39.1939 45.2439 39.2978 45.5416 39.5056 45.7363C39.1476 46.0569 38.7608 46.2172 38.3452 46.2172C37.9525 46.2172 37.6523 46.097 37.4445 45.8565C37.2366 45.616 37.1327 45.2667 37.1327 44.8087C37.1327 44.5568 37.1731 44.2132 37.254 43.778L37.0808 43.6921C36.6651 44.4937 36.1397 45.1179 35.5046 45.5645C34.8811 45.9997 34.1998 46.2172 33.4608 46.2172C32.8372 46.2172 32.283 46.0512 31.798 45.7191C31.3245 45.387 30.955 44.9175 30.6895 44.3105C30.4354 43.6921 30.3084 42.9821 30.3084 42.1805C30.3084 40.9438 30.6029 39.8158 31.1918 38.7966C31.7807 37.766 32.5832 36.9586 33.5993 36.3746C34.6154 35.7791 35.7355 35.4814 36.9595 35.4814C37.4907 35.4814 38.0334 35.5272 38.5876 35.6188C38.6685 35.7562 38.7319 35.9394 38.7782 36.1685C39.0207 35.9967 39.2978 35.9108 39.6096 35.9108C39.8982 35.9108 40.1234 35.9795 40.2851 36.1169C40.4583 36.2544 40.5449 36.4433 40.5449 36.6838C40.5449 36.9472 40.5044 37.2621 40.4236 37.6286C40.3543 37.995 40.2331 38.5332 40.0599 39.2432C39.7828 40.3998 39.5691 41.4018 39.419 42.2493C39.2689 43.0967 39.1939 43.9612 39.1939 44.843ZM34.2921 44.6025C35.366 44.6025 36.2494 43.9269 36.9422 42.5756C37.635 41.2129 38.1546 39.1631 38.501 36.4261C37.254 36.4605 36.1685 36.7353 35.2448 37.2506C34.3325 37.7545 33.634 38.4301 33.149 39.2776C32.6755 40.125 32.4389 41.0755 32.4389 42.129C32.4389 42.9077 32.6005 43.5146 32.9238 43.9498C33.2471 44.385 33.7033 44.6025 34.2921 44.6025ZM44.9277 46.2172C44.5236 46.2172 44.2234 46.1199 44.0271 45.9252C43.8423 45.7305 43.7499 45.4213 43.7499 44.9976C43.7499 44.4937 43.9 43.4574 44.2003 41.8885C44.512 40.3082 44.8643 38.7451 45.2568 37.1991L44.4774 36.3403C44.7545 36.0998 45.0778 35.9051 45.4474 35.7562C45.8284 35.6074 46.169 35.5329 46.4693 35.5329C46.8157 35.5329 47.0582 35.6016 47.1967 35.739C47.3353 35.8765 47.4046 36.1227 47.4046 36.4777C47.4046 36.7754 47.3526 37.1132 47.2487 37.4911C47.1563 37.869 47.0293 38.2183 46.8676 38.5389L47.0408 38.6248C48.2071 36.5292 49.7197 35.4814 51.5788 35.4814C52.3294 35.4814 52.8837 35.6703 53.2416 36.0482C53.6111 36.4147 53.7959 36.9872 53.7959 37.766C53.7959 38.224 53.7439 38.6993 53.64 39.1917C53.5476 39.6841 53.409 40.3025 53.2243 41.0468C53.0049 41.9171 52.8432 42.6329 52.7393 43.194C52.6354 43.7437 52.5834 44.2934 52.5834 44.843C52.5834 45.2553 52.6585 45.553 52.8086 45.7363C52.4622 46.0569 52.0927 46.2172 51.7001 46.2172C51.3075 46.2172 51.013 46.1199 50.8167 45.9252C50.632 45.7305 50.5396 45.4213 50.5396 44.9976C50.5396 44.5624 50.5858 44.0758 50.6782 43.5375C50.7821 42.9879 50.9264 42.2779 51.1112 41.4076C51.2844 40.6861 51.4114 40.0849 51.4922 39.6039C51.5846 39.1115 51.6308 38.6878 51.6308 38.3328C51.6308 37.4052 51.2786 36.9415 50.5742 36.9415C49.7544 36.9415 48.975 37.3308 48.236 38.1095C47.5085 38.8767 46.9196 39.873 46.4693 41.0984C46.0305 42.3237 45.8111 43.5719 45.8111 44.843C45.8111 45.2667 45.8804 45.5645 46.0189 45.7363C45.6725 46.0569 45.3088 46.2172 44.9277 46.2172ZM63.7344 44.0529C63.8386 44.3621 63.8904 44.614 63.8904 44.8087C63.8904 45.2896 63.6943 45.6446 63.3017 45.8737C62.9091 46.1027 62.297 46.2172 61.4655 46.2172C60.7499 46.2172 60.0398 46.1256 59.3353 45.9424C58.9192 46.1371 58.5327 46.2344 58.1746 46.2344C57.7474 46.2344 57.4356 46.1256 57.2395 45.908C57.0429 45.6905 56.9449 45.3354 56.9449 44.843C56.9449 44.1674 57.0374 43.1482 57.2223 41.7855C57.4066 40.4113 57.7591 38.1782 58.2788 35.0863L57.7419 34.0385C58.5154 33.5575 59.2021 33.317 59.8031 33.317C60.311 33.317 60.565 33.6205 60.565 34.2274C60.565 34.3878 60.3973 35.4642 60.0626 37.4568C59.7279 39.5524 59.4795 41.1098 59.318 42.129C59.1676 43.1482 59.0924 43.8639 59.0924 44.2762C59.0924 44.3792 59.0986 44.4537 59.1103 44.4995H61.8465C62.5393 44.4193 63.1686 44.2704 63.7344 44.0529ZM68.9824 34.0213C68.6126 34.0213 68.318 33.9354 68.0991 33.7637C67.8797 33.5804 67.77 33.34 67.77 33.0422C67.77 32.6987 67.9142 32.4009 68.2027 32.149C68.4912 31.8856 68.861 31.7539 69.3115 31.7539C69.6925 31.7539 69.9865 31.8455 70.1948 32.0287C70.4143 32.2005 70.524 32.4296 70.524 32.7158C70.524 33.0823 70.3792 33.3915 70.0907 33.6434C69.8022 33.8953 69.4324 34.0213 68.9824 34.0213ZM67.4408 46.2172C67.0482 46.2172 66.7536 46.1199 66.5575 45.9252C66.3609 45.7305 66.2629 45.4213 66.2629 44.9976C66.2629 44.5281 66.3726 43.6921 66.5921 42.4897C66.8226 41.2873 67.2097 39.478 67.7527 37.0617L66.9903 36.2028C67.2676 35.9853 67.5851 35.8135 67.9432 35.6875C68.3124 35.5501 68.6471 35.4814 68.9473 35.4814C69.2937 35.4814 69.5366 35.5558 69.6752 35.7047C69.825 35.8421 69.9002 36.0826 69.9002 36.4261C69.9002 36.5178 69.7905 37.0102 69.5711 37.9034C69.213 39.3577 68.9128 40.6747 68.6705 41.8542C68.4394 43.0337 68.3241 44.03 68.3241 44.843C68.3241 45.2782 68.4277 45.5817 68.636 45.7534C68.2545 46.0626 67.8563 46.2172 67.4408 46.2172ZM77.308 34.8115C76.7655 34.8115 76.3094 34.6511 75.9396 34.3305L75.7664 34.4507L76.4943 37.7316C77.1409 37.6171 77.7006 37.4854 78.174 37.3365C78.2547 37.5197 78.2954 37.7087 78.2954 37.9034C78.2954 38.2584 78.1339 38.5389 77.8103 38.7451C77.4984 38.9398 77.0947 39.0485 76.5979 39.0714C76.1479 40.7434 75.7781 42.4268 75.4896 44.1216C75.2005 45.805 75.0563 47.0475 75.0563 47.8491C75.0563 48.2842 75.1833 48.5877 75.4372 48.7595C74.941 49.0687 74.5077 49.2232 74.1385 49.2232C73.7804 49.2232 73.4974 49.103 73.2897 48.8625C73.0937 48.6335 72.9951 48.3071 72.9951 47.8834C72.9951 47.3452 73.1109 46.4405 73.3415 45.1694C73.5843 43.8983 73.9825 41.9286 74.5367 39.2604C73.948 39.352 73.4284 39.4723 72.9778 39.6211C72.8971 39.4379 72.857 39.249 72.857 39.0543C72.857 38.6649 73.0302 38.3786 73.3766 38.1954C73.7341 38.0007 74.1903 37.8976 74.7444 37.8862C74.6525 36.9014 74.6063 36.094 74.6063 35.4642C74.6063 34.3534 74.8313 33.5461 75.2818 33.0422C75.7318 32.5269 76.3266 32.2692 77.0657 32.2692C77.5274 32.2692 77.9083 32.3952 78.2085 32.6471C78.5093 32.8876 78.6591 33.1968 78.6591 33.5747C78.6591 33.9412 78.5321 34.2389 78.2781 34.4679C78.0242 34.697 77.7006 34.8115 77.308 34.8115ZM89.2179 37.9377C89.2179 39.1172 88.6058 40.0448 87.3823 40.7205C86.1698 41.3846 84.4378 41.7454 82.1861 41.8026V42.129C82.1861 43.0452 82.3593 43.7666 82.7057 44.2934C83.0521 44.8087 83.5255 45.0663 84.1259 45.0663C84.8761 45.0663 85.4881 44.8316 85.9615 44.3621C86.4349 43.8925 86.695 43.2685 86.7412 42.4897C87.6763 42.4897 88.1441 42.8333 88.1441 43.5204C88.1441 43.9784 87.9592 44.4193 87.59 44.843C87.2202 45.2553 86.7123 45.5874 86.0657 45.8393C85.4308 46.0912 84.7263 46.2172 83.9527 46.2172C82.7286 46.2172 81.7701 45.8451 81.0773 45.1007C80.3844 44.3563 80.038 43.3314 80.038 42.0259C80.038 40.7892 80.3092 39.6727 80.8523 38.6764C81.3947 37.6801 82.1455 36.9014 83.1039 36.3403C84.0624 35.7677 85.1306 35.4814 86.3079 35.4814C87.2202 35.4814 87.9303 35.6989 88.4388 36.1341C88.9584 36.5693 89.2179 37.1705 89.2179 37.9377ZM86.0139 36.5636C85.4247 36.5636 84.8705 36.7525 84.3509 37.1304C83.843 37.4969 83.4041 38.0065 83.0343 38.6592C82.6768 39.3005 82.4284 40.0276 82.2897 40.8407C83.8831 40.8064 85.1189 40.5315 85.9966 40.0162C86.8855 39.5009 87.3299 38.7909 87.3299 37.8862C87.3299 37.4854 87.2091 37.1648 86.9662 36.9243C86.724 36.6838 86.4065 36.5636 86.0139 36.5636Z" fill="white"/>
<path d="M3.22834 54.625V53.3743C3.13493 53.4152 3.02228 53.452 2.8904 53.4846C2.76126 53.5173 2.61702 53.5337 2.45766 53.5337C2.13346 53.5337 1.89442 53.4642 1.74056 53.3252C1.58669 53.1836 1.50977 52.9601 1.50977 52.6549V51.7231H1.79001V52.6222C1.79001 52.8484 1.84497 53.0132 1.95486 53.1168C2.06752 53.2204 2.24885 53.2721 2.49887 53.2721C2.639 53.2721 2.775 53.2571 2.90688 53.2272C3.03876 53.1972 3.14592 53.1604 3.22834 53.1168V51.7231H3.50859V54.625H3.22834ZM5.54267 54.625V52.4996H5.82292V54.249L7.12936 52.4955H7.38076V54.625H7.10051V52.9043L5.81467 54.625H5.54267ZM10.2853 54.6658C10.0764 54.6658 9.89096 54.6154 9.72889 54.5146C9.56677 54.4111 9.43901 54.2762 9.34561 54.11C9.25216 53.941 9.20549 53.7558 9.20549 53.5541C9.20549 53.3525 9.25082 53.1699 9.34149 53.0064C9.43216 52.8403 9.55853 52.7081 9.72065 52.61C9.88272 52.5092 10.0696 52.4588 10.2811 52.4588C10.4817 52.4588 10.6575 52.5051 10.8087 52.5977C10.9625 52.6876 11.0779 52.8103 11.1549 52.9656L10.8829 53.0514C10.8224 52.9424 10.7372 52.8579 10.6273 52.798C10.5202 52.7353 10.4007 52.704 10.2688 52.704C10.1231 52.704 9.99126 52.7408 9.87314 52.8143C9.75774 52.8879 9.66429 52.9901 9.59289 53.1209C9.52417 53.249 9.48986 53.3933 9.48986 53.5541C9.48986 53.7149 9.52556 53.8607 9.59701 53.9915C9.66841 54.1223 9.7632 54.2271 9.88138 54.3062C9.99951 54.3825 10.13 54.4206 10.2729 54.4206C10.3663 54.4206 10.457 54.4043 10.5449 54.3716C10.6328 54.3389 10.7084 54.2953 10.7716 54.2408C10.8347 54.1836 10.8773 54.1223 10.8993 54.0569L11.1755 54.1386C11.137 54.2394 11.0738 54.3307 10.9859 54.4124C10.8979 54.4915 10.7935 54.5541 10.6727 54.6005C10.5518 54.644 10.4226 54.6658 10.2853 54.6658ZM13.5115 54.625V52.7449H12.745V52.4955H14.5583V52.7449H13.7918V54.625H13.5115ZM17.2147 54.6658C17.0086 54.6658 16.8246 54.6154 16.6625 54.5146C16.5031 54.4138 16.3781 54.2803 16.2874 54.1141C16.1968 53.9451 16.1514 53.7626 16.1514 53.5664C16.1514 53.3675 16.1968 53.1849 16.2874 53.0187C16.3809 52.8498 16.5072 52.7149 16.6666 52.6141C16.8287 52.5105 17.0114 52.4588 17.2147 52.4588C17.4208 52.4588 17.6035 52.5105 17.7628 52.6141C17.925 52.7149 18.0513 52.8498 18.142 53.0187C18.2355 53.1849 18.2821 53.3675 18.2821 53.5664C18.2821 53.7626 18.2368 53.9451 18.1461 54.1141C18.0555 54.2803 17.9291 54.4138 17.767 54.5146C17.6076 54.6154 17.4236 54.6658 17.2147 54.6658ZM16.4358 53.5705C16.4358 53.7285 16.4702 53.8729 16.5388 54.0037C16.6103 54.1318 16.7051 54.234 16.8232 54.3103C16.9414 54.3838 17.0719 54.4206 17.2147 54.4206C17.3576 54.4206 17.4881 54.3825 17.6062 54.3062C17.7244 54.2299 17.8192 54.1263 17.8906 53.9955C17.9621 53.8648 17.9978 53.7203 17.9978 53.5623C17.9978 53.4043 17.9621 53.2599 17.8906 53.1291C17.8192 52.9983 17.7244 52.8947 17.6062 52.8184C17.4881 52.7422 17.3576 52.704 17.2147 52.704C17.0746 52.704 16.9455 52.7435 16.8273 52.8225C16.7092 52.8988 16.6144 53.0024 16.5429 53.1331C16.4715 53.2639 16.4358 53.4097 16.4358 53.5705ZM20.6466 54.625V52.7449H19.8801V52.4955H21.6934V52.7449H20.9269V54.625H20.6466ZM23.2498 54.0119C23.2498 53.8811 23.2883 53.768 23.3652 53.6727C23.4421 53.5746 23.5479 53.4983 23.6825 53.4438C23.8199 53.3893 23.9779 53.362 24.1565 53.362C24.2609 53.362 24.3694 53.3716 24.482 53.3906C24.5947 53.407 24.695 53.4301 24.7829 53.4601V53.2803C24.7829 53.1005 24.7293 52.9574 24.6222 52.8511C24.515 52.7449 24.3666 52.6917 24.1771 52.6917C24.0644 52.6917 23.9518 52.7135 23.8391 52.7571C23.7265 52.798 23.6097 52.8593 23.4888 52.9411L23.3817 52.7449C23.5218 52.6495 23.6592 52.5787 23.7938 52.5323C23.9284 52.4833 24.0658 52.4588 24.2059 52.4588C24.4697 52.4588 24.6785 52.5337 24.8324 52.6836C24.9862 52.8334 25.0631 53.0405 25.0631 53.3048V54.2898C25.0631 54.3634 25.0975 54.4016 25.1662 54.4043V54.625C25.1058 54.6332 25.0631 54.6359 25.0384 54.6332C24.9697 54.6304 24.9175 54.6086 24.8818 54.5678C24.8461 54.5269 24.8268 54.4833 24.8241 54.437L24.82 54.2817C24.7238 54.4043 24.5988 54.4997 24.445 54.5678C24.2911 54.6332 24.1345 54.6658 23.9751 54.6658C23.835 54.6658 23.71 54.6372 23.6001 54.58C23.4902 54.5201 23.4037 54.4411 23.3405 54.343C23.28 54.2422 23.2498 54.1318 23.2498 54.0119ZM24.6881 54.1754C24.7513 54.1018 24.7829 54.0337 24.7829 53.971V53.6604C24.5933 53.5868 24.3955 53.55 24.1894 53.55C23.9889 53.55 23.8268 53.5895 23.7031 53.6686C23.5795 53.7476 23.5177 53.8552 23.5177 53.9915C23.5177 54.1086 23.563 54.2149 23.6537 54.3103C23.7471 54.4056 23.8762 54.4533 24.0411 54.4533C24.1757 54.4533 24.3007 54.4274 24.4161 54.3757C24.5342 54.3239 24.6249 54.2571 24.6881 54.1754ZM29.398 53.64V53.3825H30.6014V53.64H29.398ZM35.5706 54.6495C35.3728 54.6495 35.2025 54.6127 35.0596 54.5391C34.9195 54.4629 34.8137 54.3566 34.7423 54.2203L34.9731 54.1182C35.0252 54.2135 35.1008 54.2884 35.1997 54.343C35.2986 54.3947 35.4182 54.4206 35.5583 54.4206C35.7259 54.4206 35.8591 54.3825 35.958 54.3062C36.0597 54.2299 36.1105 54.1277 36.1105 53.9996C36.1105 53.8852 36.0707 53.7912 35.991 53.7176C35.9113 53.644 35.8014 53.6073 35.6613 53.6073H35.4429V53.4152H35.6778C35.7685 53.4152 35.844 53.3811 35.9045 53.313C35.9676 53.2421 35.9993 53.155 35.9993 53.0514C35.9993 52.9451 35.9608 52.8593 35.8839 52.7939C35.8097 52.7285 35.6997 52.6958 35.5542 52.6958C35.3179 52.6958 35.1516 52.7898 35.0555 52.9778L34.8412 52.8634C34.9043 52.7381 34.9978 52.64 35.1214 52.5691C35.2451 52.4983 35.392 52.4628 35.5624 52.4628C35.7657 52.4628 35.9319 52.5133 36.0611 52.6141C36.1902 52.7122 36.2548 52.8484 36.2548 53.0228C36.2548 53.1236 36.2301 53.2176 36.1806 53.3048C36.1311 53.392 36.0624 53.456 35.9745 53.4969C36.1009 53.5378 36.1984 53.6059 36.2671 53.7013C36.3385 53.7939 36.3743 53.9042 36.3743 54.0323C36.3743 54.2258 36.2987 54.377 36.1476 54.486C35.9965 54.595 35.8042 54.6495 35.5706 54.6495ZM38.0309 54.0119C38.0309 53.8811 38.0693 53.768 38.1463 53.6727C38.2232 53.5746 38.329 53.4983 38.4636 53.4438C38.601 53.3893 38.759 53.362 38.9376 53.362C39.0419 53.362 39.1505 53.3716 39.2632 53.3906C39.3758 53.407 39.4761 53.4301 39.564 53.4601V53.2803C39.564 53.1005 39.5104 52.9574 39.4033 52.8511C39.2961 52.7449 39.1478 52.6917 38.9582 52.6917C38.8455 52.6917 38.7328 52.7135 38.6202 52.7571C38.5076 52.798 38.3908 52.8593 38.2699 52.9411L38.1628 52.7449C38.3029 52.6495 38.4402 52.5787 38.5749 52.5323C38.7095 52.4833 38.8469 52.4588 38.987 52.4588C39.2508 52.4588 39.4596 52.5337 39.6135 52.6836C39.7673 52.8334 39.8443 53.0405 39.8443 53.3048V54.2898C39.8443 54.3634 39.8786 54.4016 39.9473 54.4043V54.625C39.8868 54.6332 39.8443 54.6359 39.8195 54.6332C39.7508 54.6304 39.6986 54.6086 39.6629 54.5678C39.6272 54.5269 39.6079 54.4833 39.6052 54.437L39.6011 54.2817C39.5049 54.4043 39.3799 54.4997 39.2261 54.5678C39.0722 54.6332 38.9156 54.6658 38.7562 54.6658C38.6161 54.6658 38.4911 54.6372 38.3812 54.58C38.2713 54.5201 38.1847 54.4411 38.1216 54.343C38.0611 54.2422 38.0309 54.1318 38.0309 54.0119ZM39.4692 54.1754C39.5324 54.1018 39.564 54.0337 39.564 53.971V53.6604C39.3744 53.5868 39.1766 53.55 38.9705 53.55C38.7699 53.55 38.6079 53.5895 38.4842 53.6686C38.3606 53.7476 38.2988 53.8552 38.2988 53.9915C38.2988 54.1086 38.3441 54.2149 38.4348 54.3103C38.5282 54.4056 38.6573 54.4533 38.8222 54.4533C38.9568 54.4533 39.0818 54.4274 39.1972 54.3757C39.3153 54.3239 39.406 54.2571 39.4692 54.1754ZM41.6037 54.6372V54.3838C41.6752 54.3838 41.7397 54.3648 41.7974 54.3266C41.8578 54.2884 41.9101 54.2217 41.954 54.1263C42.0007 54.031 42.0378 53.8988 42.0653 53.7299C42.0928 53.5609 42.1106 53.3471 42.1189 53.0882L42.1436 52.4955H43.5366V54.625H43.2563V52.7449H42.3909L42.3826 53.1127C42.3689 53.5078 42.3318 53.8157 42.2714 54.0364C42.2109 54.2571 42.1244 54.4124 42.0117 54.5024C41.9018 54.5896 41.7658 54.6345 41.6037 54.6372ZM46.4311 54.6658C46.2251 54.6658 46.041 54.6154 45.8789 54.5146C45.7195 54.4138 45.5945 54.2803 45.5038 54.1141C45.4132 53.9451 45.3678 53.7626 45.3678 53.5664C45.3678 53.3675 45.4132 53.1849 45.5038 53.0187C45.5972 52.8498 45.7237 52.7149 45.883 52.6141C46.0451 52.5105 46.2278 52.4588 46.4311 52.4588C46.6372 52.4588 46.8199 52.5105 46.9793 52.6141C47.1414 52.7149 47.2677 52.8498 47.3584 53.0187C47.4518 53.1849 47.4985 53.3675 47.4985 53.5664C47.4985 53.7626 47.4532 53.9451 47.3625 54.1141C47.2719 54.2803 47.1455 54.4138 46.9834 54.5146C46.824 54.6154 46.6399 54.6658 46.4311 54.6658ZM45.6522 53.5705C45.6522 53.7285 45.6866 53.8729 45.7552 54.0037C45.8267 54.1318 45.9215 54.234 46.0396 54.3103C46.1577 54.3838 46.2883 54.4206 46.4311 54.4206C46.574 54.4206 46.7045 54.3825 46.8227 54.3062C46.9408 54.2299 47.0356 54.1263 47.107 53.9955C47.1785 53.8648 47.2142 53.7203 47.2142 53.5623C47.2142 53.4043 47.1785 53.2599 47.107 53.1291C47.0356 52.9983 46.9408 52.8947 46.8227 52.8184C46.7045 52.7422 46.574 52.704 46.4311 52.704C46.291 52.704 46.1619 52.7435 46.0437 52.8225C45.9256 52.8988 45.8308 53.0024 45.7594 53.1331C45.6879 53.2639 45.6522 53.4097 45.6522 53.5705ZM49.3232 54.625V52.4955H50.6049V52.7449H49.6034V54.625H49.3232ZM55.7528 54.6658C55.4068 54.6658 55.1444 54.561 54.9658 54.3511C54.79 54.1386 54.7021 53.8457 54.7021 53.4724C54.7021 53.2081 54.7241 52.9846 54.768 52.8021C54.8119 52.6195 54.8765 52.4683 54.9617 52.3484C55.0468 52.2285 55.1513 52.1318 55.2749 52.0582C55.4013 51.9819 55.5455 51.9193 55.7077 51.8702L56.6105 51.5759L56.635 51.8171L55.7656 52.0991C55.6005 52.1563 55.4618 52.2258 55.3491 52.3075C55.2392 52.3893 55.1527 52.4969 55.0895 52.6304C55.029 52.7612 54.9905 52.9288 54.9741 53.1331C55.0427 52.9751 55.1513 52.8538 55.2996 52.7694C55.4507 52.6822 55.6238 52.6386 55.8191 52.6386C56.0279 52.6386 56.205 52.6809 56.3504 52.7653C56.4991 52.8498 56.6116 52.967 56.6885 53.1168C56.7653 53.2666 56.8037 53.4397 56.8037 53.6359C56.8037 53.9465 56.7135 54.1958 56.532 54.3838C56.3532 54.5718 56.0937 54.6658 55.7528 54.6658ZM55.7528 54.4206C55.9973 54.4206 56.1856 54.3511 56.3175 54.2122C56.4523 54.0705 56.5197 53.8825 56.5197 53.6481C56.5197 53.4193 56.4534 53.2326 56.322 53.0882C56.19 52.9438 56.0001 52.8716 55.7528 52.8716C55.6101 52.8716 55.481 52.9016 55.3656 52.9615C55.2502 53.0214 55.1581 53.1086 55.0895 53.2231C55.0235 53.3375 54.9905 53.4792 54.9905 53.6481C54.9905 53.8716 55.0551 54.0569 55.1842 54.204C55.3161 54.3484 55.5057 54.4206 55.7528 54.4206ZM58.4294 54.6372V54.3838C58.5007 54.3838 58.5653 54.3648 58.6232 54.3266C58.6834 54.2884 58.7357 54.2217 58.7797 54.1263C58.8265 54.031 58.8633 53.8988 58.8911 53.7299C58.9184 53.5609 58.9362 53.3471 58.9446 53.0882L58.9691 52.4955H60.362V54.625H60.0818V52.7449H59.2164L59.208 53.1127C59.1946 53.5078 59.1573 53.8157 59.0972 54.0364C59.0365 54.2571 58.9502 54.4124 58.8371 54.5024C58.7274 54.5896 58.5915 54.6345 58.4294 54.6372ZM63.2569 54.6658C63.0508 54.6658 62.8665 54.6154 62.7044 54.5146C62.5451 54.4138 62.4204 54.2803 62.3296 54.1141C62.2388 53.9451 62.1937 53.7626 62.1937 53.5664C62.1937 53.3675 62.2388 53.1849 62.3296 53.0187C62.4226 52.8498 62.549 52.7149 62.7089 52.6141C62.8709 52.5105 63.0536 52.4588 63.2569 52.4588C63.463 52.4588 63.6456 52.5105 63.8049 52.6141C63.967 52.7149 64.0934 52.8498 64.1842 53.0187C64.2772 53.1849 64.324 53.3675 64.324 53.5664C64.324 53.7626 64.2789 53.9451 64.1881 54.1141C64.0973 54.2803 63.9709 54.4138 63.8088 54.5146C63.6495 54.6154 63.4658 54.6658 63.2569 54.6658ZM62.4778 53.5705C62.4778 53.7285 62.5123 53.8729 62.5808 54.0037C62.6521 54.1318 62.7473 54.234 62.8654 54.3103C62.9835 54.3838 63.1138 54.4206 63.2569 54.4206C63.3995 54.4206 63.5304 54.3825 63.6484 54.3062C63.7665 54.2299 63.8612 54.1263 63.9325 53.9955C64.0043 53.8648 64.0399 53.7203 64.0399 53.5623C64.0399 53.4043 64.0043 53.2599 63.9325 53.1291C63.8612 52.9983 63.7665 52.8947 63.6484 52.8184C63.5304 52.7422 63.3995 52.704 63.2569 52.704C63.1166 52.704 62.9873 52.7435 62.8693 52.8225C62.7512 52.8988 62.6565 53.0024 62.5852 53.1331C62.5134 53.2639 62.4778 53.4097 62.4778 53.5705ZM66.149 54.625V52.4955H67.4305V52.7449H66.4292V54.625H66.149ZM70.4112 54.625V53.734C70.238 53.8157 70.0431 53.8566 69.8259 53.8566C69.3508 53.8566 69.113 53.6127 69.113 53.125V52.4955H69.3932V53.0882C69.3932 53.2789 69.4316 53.4179 69.509 53.5051C69.5886 53.5923 69.7151 53.6359 69.8877 53.6359C69.9869 53.6359 70.0832 53.625 70.1762 53.6032C70.2726 53.5814 70.3511 53.5527 70.4112 53.5173V52.4955H70.6914V54.625H70.4112ZM73.5958 54.6658C73.3897 54.6658 73.2054 54.6154 73.0433 54.5146C72.8812 54.4138 72.7537 54.2789 72.6601 54.11C72.5666 53.941 72.5198 53.7558 72.5198 53.5541C72.5198 53.3552 72.5654 53.1726 72.6557 53.0064C72.7492 52.8403 72.8773 52.7081 73.0394 52.61C73.2015 52.5092 73.3852 52.4588 73.5913 52.4588C73.8029 52.4588 73.9884 52.5092 74.1477 52.61C74.307 52.7108 74.4306 52.8443 74.5186 53.0105C74.6094 53.174 74.6545 53.3539 74.6545 53.55C74.6545 53.5936 74.6534 53.6304 74.6506 53.6604H72.8127C72.8261 53.813 72.8701 53.9492 72.9442 54.0691C73.0188 54.1863 73.1135 54.2803 73.2287 54.3511C73.344 54.4192 73.4705 54.4533 73.608 54.4533C73.7478 54.4533 73.8798 54.4179 74.0034 54.347C74.1271 54.2762 74.2151 54.1836 74.2674 54.0691L74.5102 54.1345C74.4662 54.2381 74.3978 54.3307 74.3042 54.4124C74.214 54.4915 74.1081 54.5541 73.9873 54.6005C73.8664 54.644 73.7355 54.6658 73.5958 54.6658ZM72.8044 53.4601H74.3911C74.3799 53.3075 74.3376 53.1726 74.263 53.0555C74.1889 52.9356 74.0942 52.843 73.9789 52.7776C73.8636 52.7095 73.7355 52.6754 73.5958 52.6754C73.4554 52.6754 73.3279 52.7095 73.212 52.7776C73.0968 52.843 73.0021 52.9356 72.928 53.0555C72.8567 53.1726 72.8155 53.3075 72.8044 53.4601ZM77.3784 54.6658C77.1696 54.6658 76.9841 54.6154 76.8221 54.5146C76.66 54.4111 76.5325 54.2762 76.4389 54.11C76.3453 53.941 76.2985 53.7558 76.2985 53.5541C76.2985 53.3525 76.3442 53.1699 76.435 53.0064C76.5252 52.8403 76.6516 52.7081 76.8137 52.61C76.9758 52.5092 77.1629 52.4588 77.3745 52.4588C77.575 52.4588 77.751 52.5051 77.902 52.5977C78.0557 52.6876 78.171 52.8103 78.2484 52.9656L77.976 53.0514C77.9159 52.9424 77.8307 52.8579 77.7204 52.798C77.6135 52.7353 77.4937 52.704 77.3623 52.704C77.2164 52.704 77.0844 52.7408 76.9663 52.8143C76.851 52.8879 76.7575 52.9901 76.6862 53.1209C76.6177 53.249 76.5831 53.3933 76.5831 53.5541C76.5831 53.7149 76.6188 53.8607 76.6901 53.9915C76.7619 54.1223 76.8566 54.2271 76.9747 54.3062C77.0927 54.3825 77.2231 54.4206 77.3662 54.4206C77.4598 54.4206 77.55 54.4043 77.638 54.3716C77.726 54.3389 77.8017 54.2953 77.8646 54.2408C77.9281 54.1836 77.9705 54.1223 77.9927 54.0569L78.269 54.1386C78.23 54.2394 78.1671 54.3307 78.0791 54.4124C77.9911 54.4915 77.8869 54.5541 77.7661 54.6005C77.6452 54.644 77.516 54.6658 77.3784 54.6658ZM80.6047 54.625V52.7449H79.8384V52.4955H81.6518V52.7449H80.8849V54.625H80.6047ZM83.3888 54.625V52.4996H83.669V54.249L84.9755 52.4955H85.2273V54.625H84.9466V52.9043L83.6612 54.625H83.3888ZM87.0395 54.625L87.6783 53.7544C87.5296 53.7353 87.4115 53.6727 87.3235 53.5664C87.2361 53.4601 87.1921 53.3157 87.1921 53.1331C87.1921 53.0132 87.2205 52.9056 87.2784 52.8103C87.3364 52.7122 87.4171 52.6345 87.5218 52.5773C87.6287 52.5201 87.7535 52.4915 87.8966 52.4915H88.717V54.625H88.4363V53.7994H87.9585L87.3525 54.625H87.0395ZM87.8927 53.5868H88.4363V52.7122H87.9417C87.7992 52.7122 87.685 52.753 87.5998 52.8348C87.5146 52.9138 87.4723 53.0146 87.4723 53.1372C87.4723 53.2626 87.5062 53.3688 87.5753 53.456C87.6466 53.5432 87.7524 53.5868 87.8927 53.5868Z" fill="white"/>
</svg>
