<svg width="31" height="31" viewBox="0 0 31 31" fill="none" xmlns="http://www.w3.org/2000/svg">
<g clip-path="url(#clip0_46_599)">
<path d="M30.9999 15.5L27.4905 11.6037L28.04 6.38753L22.9084 5.3012L20.2908 0.753906L15.4999 2.8951L14.8533 15.5L15.4999 28.1048L20.2908 30.246L22.9084 25.6988L28.04 24.6124L27.4905 19.3962L30.9999 15.5Z" fill="#0ED678"/>
<path d="M10.709 0.753906L8.09149 5.3012L2.95988 6.38759L3.50934 11.6037L0 15.5L3.50934 19.3962L2.95988 24.6124L8.09149 25.6988L10.7091 30.246L15.5 28.1048V2.8951L10.709 0.753906Z" fill="#04EB84"/>
<path d="M21.9979 12.1062L20.6411 10.8951L15.4999 16.6551L14.8533 18.0865L15.4999 19.3862L21.9979 12.1062Z" fill="#F7F0EB"/>
<path d="M10.0969 14.1304L8.81104 15.4163L14.2175 20.8228L15.4999 19.3861V16.655L14.1425 18.1758L10.0969 14.1304Z" fill="#FFFBF5"/>
</g>
<defs>
<clipPath id="clip0_46_599">
<rect width="31" height="31" fill="white"/>
</clipPath>
</defs>
</svg>
