<svg width="47" height="47" viewBox="0 0 47 47" fill="none" xmlns="http://www.w3.org/2000/svg">
<g clip-path="url(#clip0_46_518)">
<path d="M14.1565 27.4544C13.9587 27.3845 13.7564 27.3112 13.5547 27.2348V24.0142C14.0616 24.1356 14.3637 24.3919 14.3906 24.4153C14.6673 24.6659 15.0948 24.6471 15.3484 24.3721C15.6034 24.0956 15.586 23.6647 15.3095 23.4097C15.2708 23.374 14.6201 22.7877 13.5547 22.6279V21.9702C13.5547 21.5941 13.2498 21.2891 12.8737 21.2891C12.4976 21.2891 12.1926 21.5941 12.1926 21.9702V22.6802C12.0916 22.7024 11.989 22.728 11.8842 22.7597C10.91 23.0532 10.182 23.887 9.98437 24.9357C9.80427 25.8918 10.1105 26.8138 10.7838 27.3419C11.1406 27.6217 11.5846 27.878 12.1927 28.1487V32.2323C11.6666 32.1936 11.3022 32.0652 10.7051 31.6745C10.3903 31.4685 9.96813 31.5568 9.76232 31.8716C9.55642 32.1863 9.64463 32.6084 9.95941 32.8143C10.83 33.3838 11.4249 33.5536 12.1927 33.5969V34.3334C12.1927 34.7095 12.4977 35.0144 12.8738 35.0144C13.2499 35.0144 13.5548 34.7095 13.5548 34.3334V33.5427C15.0828 33.2429 15.9753 31.983 16.1731 30.8061C16.4273 29.293 15.6359 27.9774 14.1565 27.4544ZM11.6242 26.2702C11.3527 26.0571 11.2371 25.6425 11.3228 25.1879C11.3995 24.7806 11.6684 24.2913 12.1925 24.0933V26.6334C11.9787 26.5174 11.7852 26.3964 11.6242 26.2702ZM14.8297 30.5803C14.7249 31.2038 14.2907 31.8647 13.5546 32.128V28.6858C13.6037 28.7034 13.6518 28.7208 13.7024 28.7387C14.961 29.1835 14.8835 30.2607 14.8297 30.5803Z" fill="black"/>
<path d="M46.9625 26.578C46.8453 26.0458 46.4701 25.6159 45.9587 25.4279L44.0093 24.7114C43.6565 24.5817 43.265 24.7627 43.1352 25.1157C43.0055 25.4688 43.1864 25.8602 43.5395 25.9899L45.4888 26.7064C45.5903 26.7436 45.6222 26.8253 45.6321 26.8707C45.6421 26.916 45.6475 27.0035 45.5709 27.08L28.1704 44.4806C28.0937 44.5573 28.0061 44.5518 27.961 44.5419C27.9156 44.5319 27.834 44.5 27.7967 44.3984L25.3514 37.745C25.1902 37.3066 24.8463 36.9628 24.408 36.8017L17.7547 34.3564C17.6532 34.3191 17.6213 34.2375 17.6113 34.1921C17.6013 34.1468 17.596 34.0593 17.6725 33.9828L35.0732 16.5822C35.1498 16.5056 35.2371 16.511 35.2825 16.521C35.3278 16.531 35.4095 16.5628 35.4467 16.6643L37.892 23.3176C38.0531 23.7561 38.3971 24.0999 38.8355 24.261L40.5277 24.8829C40.8807 25.0128 41.2721 24.8317 41.4019 24.4786C41.5316 24.1256 41.3506 23.7342 40.9975 23.6045L39.3052 22.9824C39.2427 22.9595 39.1936 22.9104 39.1706 22.8478L36.7254 16.1945C36.5374 15.683 36.1075 15.3079 35.5753 15.1907C35.0434 15.0735 34.4955 15.2338 34.1101 15.6191L33.4513 16.2778V9.52099C33.4513 8.64479 32.7384 7.93189 31.8622 7.93189H24.9257C25.5603 6.69814 25.362 5.14329 24.3297 4.11103C23.4458 3.22721 22.1642 2.93686 21.0159 3.30404C20.5724 2.0176 19.3504 1.09045 17.9153 1.09045C16.4802 1.09045 15.2583 2.01742 14.8147 3.30368C13.6665 2.93585 12.3862 3.22565 11.501 4.11094C10.8815 4.73029 10.5404 5.5538 10.5404 6.42982C10.5404 6.96114 10.6667 7.47291 10.9037 7.9318H10.3324C9.95629 7.9318 9.65134 8.23675 9.65134 8.61284C9.65134 8.98893 9.95629 9.29388 10.3324 9.29388H15.1857V15.7398C14.4322 15.6026 13.6652 15.5317 12.894 15.5317C11.4744 15.5317 10.1386 15.7529 8.86023 16.1786L3.74146 16.1788V9.5209C3.74146 9.39568 3.84326 9.29388 3.96847 9.29388H7.0735C7.44959 9.29388 7.75454 8.98893 7.75454 8.61284C7.75454 8.23675 7.44959 7.9318 7.0735 7.9318H3.96829C3.09209 7.9318 2.37919 8.64469 2.37919 9.5209V20.9573C2.37919 20.9614 2.37974 20.9655 2.37983 20.9697C0.881709 23.0761 0 25.6498 0 28.4255C0 31.1951 0.868582 33.8364 2.51184 36.0641C2.6454 36.2452 2.85149 36.3409 3.06042 36.3409C3.20087 36.3409 3.34251 36.2977 3.46414 36.2079C3.76688 35.9846 3.83123 35.5583 3.60789 35.2555C2.13859 33.2637 1.36199 30.9019 1.36199 28.4255C1.36199 22.0669 6.53511 16.8938 12.8937 16.8938C18.2234 16.8938 22.8051 20.4846 24.0856 25.6434L22.9326 26.7963C22.5877 24.6551 21.5671 22.683 19.9844 21.1417C18.0732 19.2808 15.555 18.2559 12.8937 18.2559C7.28619 18.2559 2.72407 22.8179 2.72407 28.4255C2.72407 34.033 7.2861 38.5951 12.8937 38.5951C15.2081 38.5951 17.4498 37.803 19.2508 36.3575L20.7106 36.894C18.5885 38.851 15.7924 39.9572 12.8937 39.9572C10.2628 39.9572 7.68762 39.0439 5.64257 37.3857C5.35047 37.1487 4.9216 37.1935 4.68467 37.4857C4.44774 37.7779 4.49254 38.2067 4.78473 38.4437C7.07157 40.2981 9.95142 41.3193 12.8937 41.3193C16.3654 41.3193 19.705 39.9012 22.1277 37.4148L23.9381 38.0802C24.0007 38.1032 24.0498 38.1523 24.0727 38.2149L26.518 44.8682C26.706 45.3797 27.1359 45.7549 27.6679 45.872C27.7827 45.8972 27.8982 45.9096 28.0126 45.9096C28.4288 45.9096 28.8309 45.746 29.1333 45.4437L46.534 28.0431C46.9193 27.6578 47.0795 27.1102 46.9625 26.578ZM3.74127 19.3531V17.5411H5.98901C5.17303 18.0606 4.41929 18.6691 3.74127 19.3531ZM32.0892 9.52099V16.1789H20.6448V9.29397H31.8621C31.9874 9.29397 32.0892 9.39587 32.0892 9.52099ZM23.3665 5.07416C24.114 5.82176 24.114 7.03816 23.3666 7.78557C23.3368 7.81549 23.2789 7.86506 23.1783 7.93189H19.8602C20.8487 6.07236 21.105 5.16247 21.1712 4.70532C21.9008 4.3486 22.7822 4.48988 23.3665 5.07416ZM17.9152 2.45254C18.9724 2.45254 19.8325 3.31267 19.8325 4.36981C19.8325 4.56662 19.7205 5.40124 18.3088 7.9318H17.5216C16.1102 5.40188 15.9979 4.56698 15.9979 4.36981C15.9979 3.31267 16.8579 2.45254 17.9152 2.45254ZM12.464 7.78566C12.1019 7.42352 11.9024 6.94205 11.9024 6.42991C11.9024 5.91778 12.1019 5.4363 12.464 5.07416C13.0493 4.48887 13.9294 4.34842 14.6592 4.70569C14.7255 5.16302 14.9816 6.07245 15.9702 7.93189H12.6522C12.5517 7.86515 12.4939 7.81558 12.464 7.78566ZM16.5476 9.29397H19.2828V16.1789H16.9246C16.9216 16.1789 16.9187 16.1793 16.9157 16.1794C16.7936 16.1392 16.6708 16.1014 16.5476 16.0648V9.29397ZM20.9524 18.3668C20.5819 18.0695 20.1957 17.7942 19.7966 17.5411H32.0892V17.6399L29.4528 20.2763H22.8761C22.3056 19.5774 21.6614 18.9359 20.9524 18.3668ZM23.8487 21.6384H28.0907L25.1882 24.5408C24.8645 23.5215 24.4128 22.5459 23.8487 21.6384ZM12.8938 37.2331C8.03728 37.2331 4.08634 33.2821 4.08634 28.4256C4.08634 23.5692 8.03737 19.6182 12.8938 19.6182C17.5691 19.6182 21.4874 23.3826 21.6922 28.0371L16.7094 33.0198C16.3241 33.4051 16.164 33.9528 16.2811 34.485C16.3982 35.0171 16.7735 35.447 17.2849 35.635L17.7142 35.7928C16.288 36.7277 14.614 37.2331 12.8938 37.2331Z" fill="black"/>
<path d="M33.394 36.2691C33.4797 36.2691 33.5671 36.2527 33.6514 36.2182C33.9996 36.0759 34.1664 35.6783 34.0241 35.3301L30.1027 25.737C29.9605 25.3889 29.5629 25.2217 29.2146 25.3643C28.8664 25.5065 28.6995 25.9042 28.8419 26.2524L32.7632 35.8455C32.8711 36.1094 33.1255 36.2691 33.394 36.2691Z" fill="black"/>
<path d="M25.2969 28.577C24.8197 29.0541 24.5864 29.7094 24.6398 30.422C24.6904 31.0961 24.9959 31.7452 25.5 32.2492C26.0041 32.7534 26.653 33.0589 27.3273 33.1093C27.3941 33.1144 27.4605 33.1169 27.5262 33.1169C28.1612 33.1169 28.7398 32.8846 29.1723 32.4523C29.6495 31.9751 29.8828 31.3199 29.8294 30.6072C29.7788 29.933 29.4733 29.2841 28.9692 28.7799C28.4651 28.2758 27.8162 27.9703 27.1419 27.9198C26.4288 27.8661 25.774 28.0998 25.2969 28.577ZM28.0061 29.7432C28.2798 30.0169 28.445 30.3599 28.4712 30.7091C28.4945 31.0199 28.4014 31.2969 28.2091 31.4892C28.0169 31.6814 27.7395 31.7742 27.4291 31.7512C27.0799 31.725 26.7368 31.5599 26.4631 31.2862C26.1894 31.0124 26.0242 30.6694 25.9981 30.3203C25.9747 30.0095 26.0678 29.7325 26.2601 29.5402C26.433 29.3673 26.6743 29.2747 26.9472 29.2747C26.9778 29.2747 27.0088 29.2759 27.0401 29.2782C27.3893 29.3043 27.7324 29.4694 28.0061 29.7432C28.006 29.7432 28.006 29.7432 28.0061 29.7432Z" fill="black"/>
<path d="M35.976 33.907C36.6111 33.907 37.1897 33.6748 37.6221 33.2424C38.5785 32.286 38.4874 30.6386 37.4191 29.5701C37.4191 29.5701 37.4191 29.5701 37.419 29.5701C36.3507 28.5016 34.7033 28.4107 33.7468 29.367C32.7903 30.3235 32.8814 31.9708 33.9498 33.0393C34.454 33.5434 35.1029 33.8489 35.7771 33.8994C35.844 33.9045 35.9103 33.907 35.976 33.907ZM34.71 30.3302C34.8904 30.1499 35.135 30.0624 35.3981 30.0624C35.7553 30.0624 36.1464 30.2239 36.4559 30.5333C36.9932 31.0707 37.0843 31.854 36.6588 32.2794C36.4666 32.4715 36.1895 32.5646 35.8789 32.5414C35.5297 32.5152 35.1866 32.35 34.9129 32.0763C34.3757 31.5388 34.2846 30.7556 34.71 30.3302Z" fill="black"/>
</g>
<defs>
<clipPath id="clip0_46_518">
<rect width="47" height="47" fill="white"/>
</clipPath>
</defs>
</svg>
