<svg width="47" height="47" viewBox="0 0 47 47" fill="none" xmlns="http://www.w3.org/2000/svg">
<path d="M41.4666 21.7797C39.8674 20.9802 36.8688 20.9709 36.7419 20.9709C36.3617 20.9709 36.0535 21.2791 36.0535 21.6594C36.0535 22.0396 36.3617 22.3478 36.7419 22.3478C37.5157 22.3479 39.7622 22.4671 40.8509 23.0113C40.9497 23.0608 41.0547 23.0841 41.1582 23.0841C41.4107 23.0841 41.6539 22.9446 41.7745 22.7035C41.9446 22.3634 41.8068 21.9498 41.4666 21.7797Z" fill="white"/>
<path d="M44.899 31.5819L42.0555 30.7695C41.9328 30.7344 41.8471 30.6208 41.8471 30.4931V29.544C42.0784 29.3837 42.2991 29.2043 42.5053 29.0041C43.505 28.034 44.0555 26.7328 44.0555 25.3401V24.0304L44.3305 23.4806C44.6322 22.8771 44.7916 22.2013 44.7916 21.5266V17.9787C44.7916 17.5985 44.4834 17.2902 44.1032 17.2902H37.4779C35.0688 17.2902 33.1087 19.2502 33.1087 21.6594V21.7004C33.1087 22.2615 33.2414 22.8233 33.4923 23.3251L33.8449 24.0303V25.1548C33.8449 26.937 34.7231 28.536 36.0533 29.4982L36.0535 30.4929C36.0535 30.6463 36.0535 30.7098 35.485 30.8723L34.0976 31.2687L30.0841 29.8093C30.0985 29.6199 30.0347 29.4273 29.8965 29.2822L28.614 27.9348V25.6729C28.7496 25.5612 28.8832 25.4464 29.0128 25.3251C30.6307 23.8086 31.5586 21.6675 31.5586 19.4509V17.6445C32.0471 16.5814 32.2947 15.4565 32.2947 14.2979V6.93671C32.2947 6.55648 31.9864 6.24823 31.6062 6.24823H21.3003C17.6734 6.24823 14.7228 9.19895 14.7228 12.8258V14.2981C14.7228 15.4567 14.9703 16.5816 15.4589 17.6447V19.1989C15.4589 21.7726 16.6032 24.0912 18.4034 25.6198V27.9349L17.1209 29.2823C16.9828 29.4274 16.9189 29.62 16.9333 29.8094L12.6973 31.3496C12.3904 31.4613 12.1052 31.6124 11.8462 31.7956L11.181 31.463C13.1611 30.6011 13.7884 29.3889 13.8185 29.3287C13.9154 29.1349 13.9154 28.9067 13.8185 28.7129C13.3221 27.7203 13.262 25.9007 13.2137 24.4388C13.1976 23.9521 13.1824 23.4923 13.1533 23.0829C12.9186 19.7806 10.4081 17.2902 7.31364 17.2902C4.21917 17.2902 1.70862 19.7805 1.47398 23.0829C1.44488 23.4924 1.42964 23.9522 1.41358 24.439C1.36529 25.9008 1.30508 27.7202 0.808822 28.7129C0.711885 28.9066 0.711885 29.1348 0.808822 29.3286C0.838932 29.3888 1.46489 30.5985 3.4489 31.4614L1.6013 32.3852C0.61357 32.8794 0 33.8722 0 34.9764V40.0628C0 40.443 0.308254 40.7513 0.688477 40.7513C1.0687 40.7513 1.37695 40.443 1.37695 40.0628V34.9764C1.37695 34.397 1.69888 33.8761 2.21708 33.6169L4.51778 32.4666L5.31807 33.2271C5.87766 33.7589 6.59551 34.0247 7.31364 34.0247C8.03158 34.0247 8.7498 33.7587 9.30921 33.2271L10.1094 32.4667L10.8596 32.8418C10.5063 33.407 10.3059 34.0698 10.3059 34.764V40.063C10.3059 40.4432 10.6141 40.7515 10.9943 40.7515C11.3746 40.7515 11.6828 40.4432 11.6828 40.063V34.764C11.6828 33.8189 12.2796 32.9668 13.1679 32.6438L17.634 31.0198L19.4932 33.8087C19.7308 34.1652 20.1117 34.3939 20.5381 34.4361C20.5856 34.4408 20.6329 34.4431 20.6801 34.4431C21.0563 34.4431 21.4166 34.295 21.6859 34.0258L22.8202 32.8915V40.0631C22.8202 40.4433 23.1284 40.7516 23.5086 40.7516C23.8889 40.7516 24.1971 40.4433 24.1971 40.0631V32.8915L25.3313 34.0258C25.6006 34.2951 25.9609 34.4432 26.3372 34.4432C26.3843 34.4432 26.4316 34.4409 26.4791 34.4362C26.9056 34.394 27.2864 34.1653 27.5241 33.8088L29.3834 31.02L33.8494 32.644C34.7376 32.967 35.3345 33.8191 35.3345 34.7642V40.0632C35.3345 40.4434 35.6427 40.7516 36.0229 40.7516C36.4032 40.7516 36.7114 40.4434 36.7114 40.0632V34.7642C36.7114 33.8069 36.3311 32.9092 35.6931 32.2452L35.8632 32.1966C36.0348 32.1476 36.2689 32.0805 36.5039 31.9653L38.2617 33.7231V40.0632C38.2617 40.4434 38.5699 40.7516 38.9501 40.7516C39.3304 40.7516 39.6386 40.4434 39.6386 40.0632V33.7231L41.3842 31.9775C41.477 32.0247 41.5745 32.0645 41.6772 32.0938L44.5207 32.9062C45.1697 33.0917 45.623 33.6927 45.623 34.3677V40.0632C45.623 40.4434 45.9313 40.7516 46.3115 40.7516C46.6917 40.7516 47 40.4434 47 40.0632V34.3677C47 33.0809 46.136 31.9354 44.899 31.5819ZM4.41681 30.3658C3.12899 29.9025 2.48301 29.2847 2.20726 28.9473C2.39526 28.4558 2.51716 27.8929 2.59969 27.2987C2.97936 28.2091 3.61524 28.9862 4.41681 29.5407V30.3658ZM8.36086 32.2291C7.77363 32.7871 6.85374 32.787 6.2667 32.229L5.62641 31.6206C5.73446 31.4182 5.79385 31.1887 5.79385 30.9483V30.2145C6.27413 30.3646 6.78471 30.4455 7.31382 30.4455C7.8423 30.4455 8.3526 30.3642 8.83371 30.2149L8.83361 30.9482C8.83361 31.1887 8.89291 31.4183 9.00105 31.6208L8.36086 32.2291ZM7.31401 29.0686C5.25813 29.0686 3.58568 27.396 3.58568 25.3402C3.58568 24.96 3.27742 24.6518 2.8972 24.6518C2.85865 24.6518 2.82101 24.6557 2.7842 24.6619C2.78622 24.6026 2.78815 24.5433 2.79017 24.4847C2.8055 24.0113 2.82028 23.5642 2.84754 23.1806C2.93548 21.9436 3.42981 20.8036 4.23945 19.9707C5.05636 19.1302 6.14819 18.6673 7.31382 18.6673C8.47946 18.6673 9.5712 19.1302 10.3882 19.9707C11.1978 20.8036 11.6922 21.9436 11.7801 23.1806C11.8073 23.5641 11.8222 24.0111 11.8378 24.4844C11.8391 24.5251 11.8405 24.5663 11.8419 24.6072C11.0928 23.4532 9.936 22.6027 8.44127 22.1224C7.06037 21.6787 5.87271 21.7062 5.82258 21.7075C5.6423 21.7125 5.47119 21.788 5.34607 21.9178L4.10387 23.2061C3.83996 23.4798 3.84785 23.9156 4.12159 24.1796C4.39533 24.4435 4.83118 24.4355 5.09509 24.1618L6.12873 23.0899C7.01888 23.1334 9.88267 23.4665 10.9964 25.919C10.7162 27.7263 9.1628 29.0686 7.31401 29.0686ZM10.2105 30.3681L10.2106 29.547C11.0115 28.9956 11.6483 28.2199 12.0282 27.3027C12.1108 27.8955 12.2326 28.4571 12.4202 28.9475C12.146 29.2816 11.497 29.9049 10.2105 30.3681ZM16.8358 19.1988V17.4907C16.8358 17.387 16.8124 17.2847 16.7673 17.1913C16.3243 16.2739 16.0997 15.3005 16.0997 14.2981V12.8258C16.0997 9.9582 18.4327 7.62527 21.3003 7.62527H30.9177V14.2982C30.9177 15.3006 30.6931 16.274 30.2501 17.1914C30.205 17.2848 30.1816 17.3871 30.1816 17.4908V19.4511C30.1816 21.3156 29.4321 23.0449 28.0711 24.3206C27.9012 24.4798 27.7249 24.6291 27.5426 24.7682C27.5385 24.7709 27.5347 24.7739 27.5307 24.7768C26.2557 25.7448 24.6941 26.2152 23.0632 26.1096C19.5712 25.8835 16.8358 22.848 16.8358 19.1988ZM20.7123 33.052C20.7075 33.0568 20.6964 33.0681 20.6739 33.0657C20.6515 33.0635 20.6427 33.0503 20.639 33.0447L18.4978 29.8329L19.1868 29.1089L22.4351 31.3292L20.7123 33.052ZM23.5087 30.3951L19.7804 27.8467V26.5615C20.7451 27.083 21.8253 27.4092 22.9741 27.4835C23.1556 27.4953 23.336 27.501 23.5158 27.501C24.8322 27.501 26.0992 27.1864 27.237 26.589V27.8467L23.5087 30.3951ZM26.3785 33.0448C26.3747 33.0505 26.3659 33.0637 26.3435 33.0659C26.321 33.0687 26.31 33.0569 26.3051 33.0522L24.5824 31.3294L27.8306 29.109L28.5197 29.8331L26.3785 33.0448ZM38.9501 32.4639L37.3878 30.9017C37.415 30.7778 37.4305 30.6422 37.4304 30.4927L37.4303 30.2022C37.8638 30.3445 38.3208 30.4289 38.7936 30.443C38.8467 30.4447 38.8993 30.4454 38.9522 30.4454C39.4747 30.4454 39.9847 30.3665 40.4701 30.2158V30.4931C40.4701 30.6304 40.4874 30.765 40.5199 30.8943L38.9501 32.4639ZM41.5464 28.016C40.8167 28.7241 39.8528 29.0981 38.835 29.0667C36.8427 29.007 35.2218 27.2521 35.2218 25.155V23.8679C35.2218 23.761 35.1969 23.6556 35.1491 23.56L34.7238 22.7094C34.568 22.3978 34.4857 22.049 34.4857 21.7005V21.6595C34.4857 20.0095 35.828 18.6672 37.4779 18.6672H43.4147V21.5267C43.4147 21.9888 43.3055 22.4516 43.0988 22.8649L42.7513 23.56C42.7034 23.6557 42.6786 23.761 42.6786 23.8679V25.3401C42.6786 26.3573 42.2765 27.3075 41.5464 28.016Z" fill="white"/>
<path d="M43.3672 34.9575C42.987 34.9575 42.6787 35.2658 42.6787 35.646V40.0628C42.6787 40.443 42.987 40.7513 43.3672 40.7513C43.7474 40.7513 44.0557 40.443 44.0557 40.0628V35.646C44.0557 35.2659 43.7474 34.9575 43.3672 34.9575Z" fill="white"/>
<path d="M3.63281 35.8676C3.25259 35.8676 2.94434 36.1758 2.94434 36.556V40.0628C2.94434 40.443 3.25259 40.7512 3.63281 40.7512C4.01304 40.7512 4.32129 40.443 4.32129 40.0628V36.556C4.32129 36.1759 4.01304 35.8676 3.63281 35.8676Z" fill="white"/>
<path d="M29.1485 14.5475C26.5446 11.9436 21.0965 12.4414 18.8748 12.7762C18.1751 12.8817 17.6672 13.4739 17.6672 14.1843V15.7704C17.6672 16.1506 17.9755 16.4589 18.3557 16.4589C18.7359 16.4589 19.0442 16.1506 19.0442 15.7704V14.1842C19.0442 14.1608 19.0596 14.1408 19.0802 14.1377C19.9676 14.0039 21.7285 13.7976 23.553 13.9192C25.6999 14.0621 27.255 14.6011 28.1749 15.5211C28.4437 15.7899 28.8797 15.7899 29.1485 15.5211C29.4173 15.2522 29.4173 14.8162 29.1485 14.5475Z" fill="white"/>
<path d="M15.4114 36.4298C15.0312 36.4298 14.7229 36.7381 14.7229 37.1183V40.0629C14.7229 40.4431 15.0312 40.7513 15.4114 40.7513C15.7916 40.7513 16.0999 40.4431 16.0999 40.0629V37.1183C16.0999 36.7382 15.7916 36.4298 15.4114 36.4298Z" fill="white"/>
<path d="M31.6064 36.4298C31.2262 36.4298 30.918 36.7381 30.918 37.1183V40.0629C30.918 40.4431 31.2262 40.7513 31.6064 40.7513C31.9867 40.7513 32.2949 40.4431 32.2949 40.0629V37.1183C32.2949 36.7382 31.9867 36.4298 31.6064 36.4298Z" fill="white"/>
</svg>
