<svg width="45" height="45" viewBox="0 0 45 45" fill="none" xmlns="http://www.w3.org/2000/svg">
<path d="M30.4102 0C29.9248 0 29.5312 0.393574 29.5312 0.878906V4.92188C29.5312 5.40721 29.9248 5.80078 30.4102 5.80078C30.8955 5.80078 31.2891 5.40721 31.2891 4.92188V0.878906C31.2891 0.393574 30.8955 0 30.4102 0Z" fill="white"/>
<path d="M10.1953 27.4219C9.71016 27.4219 9.31641 27.8156 9.31641 28.3008C9.31641 28.7859 9.71016 29.1797 10.1953 29.1797C10.6805 29.1797 11.0742 28.7859 11.0742 28.3008C11.0742 27.8156 10.6805 27.4219 10.1953 27.4219Z" fill="white"/>
<path d="M42.7148 25.6641C42.7148 23.7255 41.1377 22.1484 39.1992 22.1484H32.638C33.6538 19.5466 34.0649 16.4841 33.9856 13.758C33.9705 13.2378 33.9506 12.937 33.9236 12.7476C33.8781 10.8485 32.3188 9.31641 30.4102 9.31641C28.4716 9.31641 26.8945 10.8935 26.8945 12.832V13.7109C26.8945 19.2697 19.7566 22.3929 14.3698 23.7321C13.9625 22.801 13.0328 22.1484 11.9531 22.1484H3.16406C2.67873 22.1484 2.28516 22.542 2.28516 23.0273V44.1211C2.28516 44.6064 2.67873 45 3.16406 45H11.9531C13.0256 45 13.9499 44.356 14.3614 43.4348C14.8075 43.5492 15.2215 43.6573 15.6037 43.7571C18.6725 44.5586 20.3629 45 24.474 45H33.9258C35.8643 45 37.4414 43.4229 37.4414 41.4844C37.4414 40.7616 37.2219 40.0892 36.8464 39.5299C38.2041 39.055 39.1992 37.7577 39.1992 36.2109C39.1992 35.4908 38.9851 34.8162 38.6107 34.2543C39.9625 33.7787 40.957 32.4844 40.957 30.9375C40.957 30.2147 40.7376 29.5423 40.362 28.983C41.7197 28.5081 42.7148 27.2108 42.7148 25.6641ZM12.832 42.3633C12.832 42.8479 12.4378 43.2422 11.9531 43.2422H4.04297V23.9062H11.9531C12.4378 23.9062 12.832 24.3005 12.832 24.7852V42.3633ZM39.1992 27.4219C37.3141 27.4219 36.8647 27.4219 34.8047 27.4219C34.3194 27.4219 33.9258 27.8154 33.9258 28.3008C33.9258 28.7861 34.3194 29.1797 34.8047 29.1797H37.4414C38.4107 29.1797 39.1992 29.9682 39.1992 30.9375C39.1992 31.9083 38.4122 32.6953 37.4414 32.6953H33.0469C32.5615 32.6953 32.168 33.0889 32.168 33.5742C32.168 34.0596 32.5615 34.4531 33.0469 34.4531H35.6836C36.6413 34.4531 37.4414 35.2182 37.4414 36.2109C37.4414 37.1818 36.6544 37.9688 35.6836 37.9688C33.7984 37.9688 33.349 37.9688 31.2891 37.9688C30.8037 37.9688 30.4102 38.3623 30.4102 38.8477C30.4102 39.333 30.8037 39.7266 31.2891 39.7266H33.9258C34.895 39.7266 35.6836 40.5151 35.6836 41.4844C35.6836 42.4536 34.895 43.2422 33.9258 43.2422H24.474C20.5886 43.2422 19.0711 42.8459 16.0479 42.0564C15.6051 41.9407 15.1193 41.8139 14.5898 41.6789V25.4905C20.9503 23.9754 28.6523 20.2773 28.6523 13.7109V12.832C28.6523 11.8628 29.4409 11.0742 30.4102 11.0742C31.3777 11.0742 32.1661 11.8615 32.168 12.8293V12.832C32.168 13.214 32.6447 17.9018 30.7331 22.1484H27.7734C27.2881 22.1484 26.8945 22.542 26.8945 23.0273C26.8945 23.5127 27.2881 23.9062 27.7734 23.9062C28.3872 23.9062 38.1974 23.9062 39.1992 23.9062C40.1685 23.9062 40.957 24.6948 40.957 25.6641C40.957 26.6349 40.1701 27.4219 39.1992 27.4219Z" fill="white"/>
<path d="M10.1953 30.9375C9.70998 30.9375 9.31641 31.3311 9.31641 31.8164V38.8477C9.31641 39.333 9.70998 39.7266 10.1953 39.7266C10.6806 39.7266 11.0742 39.333 11.0742 38.8477V31.8164C11.0742 31.3311 10.6806 30.9375 10.1953 30.9375Z" fill="white"/>
<path d="M23.3789 11.0742H19.8633C19.3779 11.0742 18.9844 11.4678 18.9844 11.9531C18.9844 12.4385 19.3779 12.832 19.8633 12.832H23.3789C23.8642 12.832 24.2578 12.4385 24.2578 11.9531C24.2578 11.4678 23.8642 11.0742 23.3789 11.0742Z" fill="white"/>
<path d="M40.957 11.0742H37.4414C36.9561 11.0742 36.5625 11.4678 36.5625 11.9531C36.5625 12.4385 36.9561 12.832 37.4414 12.832H40.957C41.4424 12.832 41.8359 12.4385 41.8359 11.9531C41.8359 11.4678 41.4424 11.0742 40.957 11.0742Z" fill="white"/>
<path d="M38.4893 3.8741C38.146 3.53098 37.5897 3.53098 37.2463 3.8741L34.7608 6.35956C34.4176 6.70277 34.4176 7.2593 34.7608 7.6026C35.1042 7.94581 35.6605 7.94572 36.0039 7.6026L38.4893 5.11714C38.8325 4.77393 38.8325 4.2174 38.4893 3.8741Z" fill="white"/>
<path d="M26.0596 6.35956L23.5742 3.8741C23.2309 3.53098 22.6745 3.53098 22.3311 3.8741C21.9879 4.21732 21.9879 4.77384 22.3311 5.11714L24.8166 7.6026C25.1601 7.94581 25.7163 7.94572 26.0596 7.6026C26.4028 7.25939 26.4028 6.70286 26.0596 6.35956Z" fill="white"/>
</svg>
