<svg width="32" height="32" viewBox="0 0 32 32" fill="none" xmlns="http://www.w3.org/2000/svg">
<rect width="32" height="32" fill="#00B027"/>
<path d="M20.125 15.25C20.125 19.625 14.5 23.375 14.5 23.375C14.5 23.375 8.875 19.625 8.875 15.25C8.875 13.7582 9.46763 12.3274 10.5225 11.2725C11.5774 10.2176 13.0082 9.625 14.5 9.625C15.9918 9.625 17.4226 10.2176 18.4775 11.2725C19.5324 12.3274 20.125 13.7582 20.125 15.25Z" stroke="white" stroke-linecap="round" stroke-linejoin="round"/>
<path d="M14.5 17.125C15.5355 17.125 16.375 16.2855 16.375 15.25C16.375 14.2145 15.5355 13.375 14.5 13.375C13.4645 13.375 12.625 14.2145 12.625 15.25C12.625 16.2855 13.4645 17.125 14.5 17.125Z" stroke="white" stroke-linecap="round" stroke-linejoin="round"/>
</svg>
