<svg width="32" height="32" viewBox="0 0 32 32" fill="none" xmlns="http://www.w3.org/2000/svg">
<rect width="32" height="32" fill="#00B027"/>
<path d="M20.8338 18.87V20.62C20.8345 20.7825 20.8012 20.9433 20.7361 21.0921C20.671 21.241 20.5756 21.3746 20.4559 21.4844C20.3362 21.5943 20.1948 21.6779 20.0409 21.7299C19.887 21.782 19.724 21.8013 19.5622 21.7867C17.7671 21.5916 16.0429 20.9783 14.528 19.9958C13.1186 19.1002 11.9236 17.9053 11.028 16.4958C10.0421 14.9741 9.42863 13.2414 9.23716 11.4383C9.22258 11.277 9.24175 11.1145 9.29345 10.961C9.34515 10.8075 9.42824 10.6664 9.53744 10.5468C9.64663 10.4272 9.77954 10.3316 9.9277 10.2662C10.0759 10.2007 10.236 10.1668 10.398 10.1667H12.148C12.4311 10.1639 12.7055 10.2641 12.9202 10.4487C13.1348 10.6333 13.275 10.8897 13.3147 11.17C13.3885 11.7301 13.5255 12.2799 13.723 12.8092C13.8015 13.018 13.8185 13.2449 13.7719 13.463C13.7254 13.6812 13.6173 13.8814 13.4605 14.04L12.7197 14.7808C13.5501 16.2413 14.7593 17.4504 16.2197 18.2808L16.9605 17.54C17.1191 17.3832 17.3193 17.2751 17.5375 17.2286C17.7556 17.182 17.9825 17.199 18.1913 17.2775C18.7206 17.475 19.2705 17.612 19.8305 17.6858C20.1139 17.7258 20.3726 17.8686 20.5576 18.0869C20.7426 18.3052 20.8409 18.5839 20.8338 18.87Z" stroke="white" stroke-linecap="round" stroke-linejoin="round"/>
</svg>
