<svg width="28" height="28" viewBox="0 0 28 28" fill="none" xmlns="http://www.w3.org/2000/svg">
<path fill-rule="evenodd" clip-rule="evenodd" d="M0 14C0 21.732 6.26801 28 14 28C21.732 28 28 21.732 28 14C28 6.26801 21.732 0 14 0C6.26801 0 0 6.26801 0 14ZM22.7863 13.4642C22.7844 18.0531 19.0514 21.7871 14.4615 21.7889H14.4581C13.0648 21.7885 11.6958 21.4389 10.4798 20.7757L6.06671 21.9333L7.24773 17.6195C6.51922 16.3569 6.13588 14.9248 6.1365 13.4576C6.13833 8.86763 9.87285 5.13331 14.4614 5.13331C16.6884 5.13427 18.7786 6.00123 20.3503 7.5748C21.9221 9.14829 22.7872 11.2398 22.7863 13.4642Z" fill="white"/>
<path fill-rule="evenodd" clip-rule="evenodd" d="M8.06542 19.9556L10.6842 19.2686L10.9369 19.4186C11.9992 20.049 13.217 20.3826 14.4586 20.383H14.4614C18.2751 20.383 21.3791 17.279 21.3806 13.4637C21.3813 11.6149 20.6623 9.87647 19.3559 8.56858C18.0496 7.26069 16.3123 6.54007 14.4642 6.53943C10.6475 6.53943 7.54351 9.64315 7.54199 13.4581C7.54146 14.7656 7.90727 16.0388 8.5999 17.1405L8.76442 17.4023L8.06542 19.9556ZM18.3705 15.2566C18.5156 15.3267 18.6136 15.374 18.6554 15.4438C18.7074 15.5306 18.7074 15.9471 18.5342 16.433C18.3607 16.9189 17.5297 17.3623 17.1301 17.422C16.7717 17.4756 16.3182 17.498 15.8199 17.3396C15.5178 17.2438 15.1304 17.1158 14.6341 16.9015C12.6841 16.0594 11.3662 14.1694 11.1172 13.8122C11.0997 13.7872 11.0875 13.7697 11.0807 13.7606L11.079 13.7583C10.9689 13.6115 10.2314 12.6273 10.2314 11.6088C10.2314 10.6507 10.702 10.1484 10.9187 9.91728C10.9335 9.90144 10.9471 9.88688 10.9594 9.87352C11.15 9.66527 11.3754 9.61321 11.5141 9.61321C11.6527 9.61321 11.7915 9.61449 11.9127 9.62058C11.9277 9.62133 11.9432 9.62124 11.9593 9.62114C12.0805 9.62043 12.2317 9.61955 12.3807 9.97765C12.4381 10.1155 12.522 10.3197 12.6105 10.5352C12.7895 10.971 12.9873 11.4525 13.0221 11.5221C13.0741 11.6263 13.1087 11.7477 13.0394 11.8866C13.029 11.9074 13.0194 11.9271 13.0102 11.9458C12.9581 12.0521 12.9198 12.1304 12.8314 12.2336C12.7967 12.2741 12.7607 12.3179 12.7248 12.3616C12.6532 12.4488 12.5817 12.5359 12.5194 12.598C12.4153 12.7017 12.3068 12.8143 12.4282 13.0225C12.5495 13.2308 12.967 13.9119 13.5854 14.4635C14.2501 15.0564 14.8278 15.307 15.1207 15.434C15.1778 15.4588 15.2242 15.4789 15.2581 15.4959C15.4661 15.6001 15.5874 15.5826 15.7088 15.4438C15.8301 15.305 16.2287 14.8364 16.3674 14.6282C16.506 14.4201 16.6448 14.4547 16.8354 14.5241C17.0261 14.5936 18.0488 15.0968 18.2568 15.2009C18.2974 15.2212 18.3354 15.2395 18.3705 15.2566Z" fill="white"/>
</svg>
