<svg width="27" height="28" viewBox="0 0 27 28" fill="none" xmlns="http://www.w3.org/2000/svg">
<path fill-rule="evenodd" clip-rule="evenodd" d="M13.5 0C6.04416 0 0 6.26801 0 14C0 21.732 6.04416 28 13.5 28C20.9558 28 27 21.732 27 14C27 6.26801 20.9558 0 13.5 0ZM10.5319 6.57847C11.2999 6.54222 11.5453 6.53335 13.5007 6.53335H13.4984C15.4545 6.53335 15.699 6.54222 16.467 6.57847C17.2335 6.61487 17.757 6.74071 18.216 6.92536C18.69 7.11592 19.0905 7.37103 19.491 7.78637C19.8915 8.20139 20.1375 8.61798 20.322 9.10907C20.499 9.58383 20.6205 10.1264 20.6565 10.9213C20.691 11.7178 20.7 11.9723 20.7 14.0001C20.7 16.0279 20.691 16.2818 20.6565 17.0783C20.6205 17.8728 20.499 18.4156 20.322 18.8905C20.1375 19.3814 19.8915 19.798 19.491 20.2131C19.091 20.6284 18.6899 20.8841 18.2164 21.0748C17.7583 21.2595 17.2345 21.3853 16.468 21.4217C15.7 21.458 15.4554 21.4668 13.4998 21.4668C11.5445 21.4668 11.2993 21.458 10.5313 21.4217C9.76491 21.3853 9.24155 21.2595 8.78345 21.0748C8.31019 20.8841 7.90849 20.6284 7.50843 20.2131C7.10808 19.798 6.86208 19.3814 6.67803 18.8903C6.50012 18.4156 6.37877 17.873 6.34352 17.0781C6.30872 16.2817 6.30002 16.0279 6.30002 14.0001C6.30002 11.9723 6.30902 11.7176 6.34337 10.9212C6.37787 10.1266 6.49937 9.58383 6.67788 9.10891C6.86238 8.61798 7.10838 8.20139 7.50888 7.78637C7.90909 7.37118 8.31079 7.11607 8.78435 6.92536C9.24215 6.74071 9.76536 6.61487 10.5319 6.57847Z" fill="white"/>
<path fill-rule="evenodd" clip-rule="evenodd" d="M12.8543 7.87894C12.9797 7.87874 13.1146 7.8788 13.2602 7.87887L13.5002 7.87894C15.4226 7.87894 15.6505 7.8861 16.4096 7.92188C17.1117 7.95516 17.4927 8.07681 17.7465 8.17901C18.0825 8.31435 18.322 8.47613 18.5739 8.73746C18.8259 8.9988 18.9819 9.24769 19.1127 9.59614C19.2112 9.85903 19.3287 10.2541 19.3606 10.9822C19.3951 11.7693 19.4026 12.0057 19.4026 13.9984C19.4026 15.9911 19.3951 16.2275 19.3606 17.0147C19.3285 17.7427 19.2112 18.1378 19.1127 18.4007C18.9822 18.7491 18.8259 18.9972 18.5739 19.2584C18.3219 19.5198 18.0826 19.6815 17.7465 19.8169C17.493 19.9195 17.1117 20.0409 16.4096 20.0742C15.6506 20.1099 15.4226 20.1177 13.5002 20.1177C11.5776 20.1177 11.3498 20.1099 10.5908 20.0742C9.88878 20.0406 9.50778 19.9189 9.25382 19.8167C8.91782 19.6814 8.67782 19.5196 8.42581 19.2583C8.17381 18.9969 8.01781 18.7487 7.88701 18.4001C7.78846 18.1372 7.67101 17.742 7.63906 17.014C7.60456 16.2269 7.59766 15.9905 7.59766 13.9965C7.59766 12.0026 7.60456 11.7674 7.63906 10.9803C7.67116 10.2523 7.78846 9.85716 7.88701 9.59396C8.01751 9.24551 8.17381 8.99662 8.42581 8.73528C8.67782 8.47395 8.91782 8.31217 9.25382 8.17652C9.50763 8.07386 9.88878 7.95252 10.5908 7.91908C11.255 7.88796 11.5124 7.87863 12.8543 7.87708V7.87894ZM17.3436 9.11872C16.8666 9.11872 16.4795 9.51959 16.4795 10.0144C16.4795 10.5091 16.8666 10.9104 17.3436 10.9104C17.8206 10.9104 18.2076 10.5091 18.2076 10.0144C18.2076 9.51975 17.8206 9.11841 17.3436 9.11841V9.11872ZM9.80273 14.0001C9.80273 11.8826 11.4582 10.1657 13.5001 10.1656C15.5421 10.1656 17.1972 11.8825 17.1972 14.0001C17.1972 16.1177 15.5422 17.8338 13.5003 17.8338C11.4583 17.8338 9.80273 16.1177 9.80273 14.0001Z" fill="white"/>
<path d="M13.5006 11.5112C14.826 11.5112 15.9006 12.6255 15.9006 14.0001C15.9006 15.3746 14.826 16.4891 13.5006 16.4891C12.175 16.4891 11.1006 15.3746 11.1006 14.0001C11.1006 12.6255 12.175 11.5112 13.5006 11.5112Z" fill="white"/>
</svg>
