<svg width="34" height="34" viewBox="0 0 34 34" fill="none" xmlns="http://www.w3.org/2000/svg">
<path fill-rule="evenodd" clip-rule="evenodd" d="M17 0C7.61116 0 0 7.61116 0 17C0 26.3888 7.61116 34 17 34C26.3888 34 34 26.3888 34 17C34 7.61116 26.3888 0 17 0ZM13.2623 7.98813C14.2294 7.94412 14.5384 7.93335 17.0008 7.93335H16.998C19.4611 7.93335 19.769 7.94412 20.7361 7.98813C21.7014 8.03233 22.3606 8.18514 22.9386 8.40936C23.5355 8.64075 24.0398 8.95053 24.5442 9.45487C25.0485 9.95883 25.3583 10.4647 25.5906 11.061C25.8135 11.6375 25.9665 12.2964 26.0119 13.2616C26.0553 14.2287 26.0666 14.5377 26.0666 17.0001C26.0666 19.4625 26.0553 19.7708 26.0119 20.7379C25.9665 21.7027 25.8135 22.3618 25.5906 22.9385C25.3583 23.5346 25.0485 24.0405 24.5442 24.5444C24.0404 25.0488 23.5353 25.3593 22.9392 25.5909C22.3623 25.8151 21.7027 25.9679 20.7375 26.0121C19.7703 26.0561 19.4623 26.0669 16.9997 26.0669C14.5375 26.0669 14.2287 26.0561 13.2615 26.0121C12.2965 25.9679 11.6375 25.8151 11.0606 25.5909C10.4646 25.3593 9.95878 25.0488 9.45501 24.5444C8.95086 24.0405 8.64108 23.5346 8.40931 22.9383C8.18528 22.3618 8.03247 21.7029 7.98808 20.7377C7.94426 19.7706 7.9333 19.4625 7.9333 17.0001C7.9333 14.5377 7.94464 14.2285 7.98789 13.2614C8.03134 12.2965 8.18434 11.6375 8.40912 11.0608C8.64146 10.4647 8.95124 9.95883 9.45558 9.45487C9.95954 8.95072 10.4654 8.64094 11.0617 8.40936C11.6382 8.18514 12.2971 8.03233 13.2623 7.98813Z" fill="#00B027"/>
<path fill-rule="evenodd" clip-rule="evenodd" d="M16.1869 9.56721C16.3448 9.56696 16.5147 9.56704 16.698 9.56712L17.0002 9.56721C19.4211 9.56721 19.708 9.5759 20.664 9.61934C21.548 9.65976 22.0278 9.80748 22.3474 9.93158C22.7705 10.0959 23.0721 10.2924 23.3893 10.6097C23.7066 10.927 23.9031 11.2293 24.0678 11.6524C24.1919 11.9716 24.3398 12.4514 24.38 13.3354C24.4235 14.2912 24.4329 14.5783 24.4329 16.998C24.4329 19.4177 24.4235 19.7048 24.38 20.6606C24.3396 21.5446 24.1919 22.0244 24.0678 22.3436C23.9034 22.7667 23.7066 23.068 23.3893 23.3851C23.0719 23.7025 22.7707 23.8989 22.3474 24.0633C22.0281 24.1879 21.548 24.3353 20.664 24.3757C19.7082 24.4191 19.4211 24.4286 17.0002 24.4286C14.5792 24.4286 14.2923 24.4191 13.3365 24.3757C12.4525 24.3349 11.9727 24.1872 11.6529 24.0631C11.2298 23.8987 10.9276 23.7023 10.6102 23.385C10.2929 23.0676 10.0965 22.7661 9.93175 22.3428C9.80765 22.0236 9.65975 21.5438 9.61952 20.6598C9.57607 19.704 9.56738 19.4169 9.56738 16.9957C9.56738 14.5745 9.57607 14.2889 9.61952 13.3331C9.65994 12.4491 9.80765 11.9693 9.93175 11.6497C10.0961 11.2266 10.2929 10.9244 10.6102 10.6071C10.9276 10.2897 11.2298 10.0933 11.6529 9.92856C11.9725 9.80389 12.4525 9.65655 13.3365 9.61594C14.1729 9.57816 14.4971 9.56683 16.1869 9.56494V9.56721ZM21.84 11.0727C21.2393 11.0727 20.752 11.5594 20.752 12.1603C20.752 12.761 21.2393 13.2483 21.84 13.2483C22.4407 13.2483 22.928 12.761 22.928 12.1603C22.928 11.5596 22.4407 11.0723 21.84 11.0723V11.0727ZM12.3441 17.0001C12.3441 14.4287 14.4289 12.3439 17.0003 12.3439H17.0001C19.5715 12.3439 21.6557 14.4287 21.6557 17.0001C21.6557 19.5714 19.5717 21.6553 17.0003 21.6553C14.4289 21.6553 12.3441 19.5714 12.3441 17.0001Z" fill="#00B027"/>
<path d="M17.0008 13.9778C18.6698 13.9778 20.023 15.3309 20.023 17.0001C20.023 18.6691 18.6698 20.0224 17.0008 20.0224C15.3315 20.0224 13.9785 18.6691 13.9785 17.0001C13.9785 15.3309 15.3315 13.9778 17.0008 13.9778Z" fill="#00B027"/>
</svg>
