<svg width="34" height="34" viewBox="0 0 34 34" fill="none" xmlns="http://www.w3.org/2000/svg">
<path fill-rule="evenodd" clip-rule="evenodd" d="M0 17C0 26.3888 7.61116 34 17 34C26.3888 34 34 26.3888 34 17C34 7.61116 26.3888 0 17 0C7.61116 0 0 7.61116 0 17ZM13.8834 24.7917L14.1726 20.4583L14.1724 20.4581L22.0554 13.3443C22.4013 13.0373 21.9798 12.8875 21.5205 13.166L11.7919 19.3037L7.5896 17.9921C6.68209 17.7143 6.67558 17.0907 7.79334 16.6423L24.1686 10.3281C24.9165 9.98857 25.6384 10.5077 25.3528 11.6524L22.5641 24.7939C22.3694 25.7277 21.8052 25.9511 21.0234 25.5197L16.7753 22.3812L14.7334 24.3667C14.7269 24.3729 14.7205 24.3792 14.7142 24.3854C14.4858 24.6077 14.2968 24.7917 13.8834 24.7917Z" fill="#00B027"/>
</svg>
