<svg width="34" height="34" viewBox="0 0 34 34" fill="none" xmlns="http://www.w3.org/2000/svg">
<path fill-rule="evenodd" clip-rule="evenodd" d="M0 17C0 26.3888 7.61116 34 17 34C26.3888 34 34 26.3888 34 17C34 7.61116 26.3888 0 17 0C7.61116 0 0 7.61116 0 17ZM27.669 16.3494C27.6668 21.9217 23.1338 26.4557 17.5603 26.458H17.5561C15.8643 26.4574 14.2019 26.0329 12.7254 25.2276L7.36665 26.6333L8.80075 21.3951C7.91613 19.862 7.45064 18.123 7.4514 16.3414C7.45362 10.7678 11.9884 6.23331 17.5602 6.23331C20.2644 6.23447 22.8025 7.28721 24.7111 9.19797C26.6196 11.1086 27.6701 13.6484 27.669 16.3494Z" fill="#00B027"/>
<path fill-rule="evenodd" clip-rule="evenodd" d="M9.7938 24.2318L12.9738 23.3976L13.2806 23.5797C14.5706 24.3452 16.0493 24.7503 17.557 24.7508H17.5604C22.1913 24.7508 25.9604 20.9816 25.9622 16.3488C25.9631 14.1038 25.09 11.9929 23.5037 10.4047C21.9174 8.81656 19.8079 7.94151 17.5637 7.94073C12.9292 7.94073 9.16004 11.7095 9.1582 16.342C9.15755 17.9296 9.60176 19.4757 10.4428 20.8134L10.6426 21.1313L9.7938 24.2318ZM22.3072 18.5258C22.4833 18.6109 22.6023 18.6684 22.6531 18.7532C22.7162 18.8585 22.7162 19.3643 22.5058 19.9544C22.2953 20.5444 21.2862 21.0828 20.8009 21.1553C20.3657 21.2204 19.8151 21.2475 19.21 21.0552C18.8432 20.9388 18.3727 20.7834 17.7701 20.5232C15.4022 19.5007 13.8019 17.2057 13.4995 16.7719C13.4783 16.7416 13.4635 16.7203 13.4552 16.7093L13.4532 16.7066C13.3195 16.5282 12.4239 15.3332 12.4239 14.0964C12.4239 12.9329 12.9954 12.3231 13.2585 12.0424C13.2765 12.0232 13.2931 12.0055 13.3079 11.9893C13.5394 11.7364 13.8131 11.6732 13.9814 11.6732C14.1498 11.6732 14.3184 11.6747 14.4655 11.6821C14.4837 11.683 14.5026 11.6829 14.5221 11.6828C14.6693 11.6819 14.8528 11.6809 15.0338 12.1157C15.1035 12.283 15.2054 12.5311 15.3129 12.7928C15.5302 13.3219 15.7704 13.9066 15.8126 13.9912C15.8758 14.1176 15.9178 14.265 15.8337 14.4337C15.821 14.459 15.8093 14.4828 15.7982 14.5056C15.7349 14.6347 15.6884 14.7297 15.5811 14.855C15.5389 14.9043 15.4953 14.9574 15.4516 15.0105C15.3648 15.1164 15.2779 15.2222 15.2022 15.2976C15.0758 15.4235 14.9441 15.5602 15.0915 15.813C15.2388 16.0659 15.7457 16.893 16.4966 17.5628C17.3038 18.2827 18.0053 18.587 18.3609 18.7413C18.4303 18.7714 18.4866 18.7958 18.5278 18.8164C18.7803 18.9429 18.9277 18.9218 19.075 18.7532C19.2224 18.5847 19.7064 18.0157 19.8748 17.7628C20.0431 17.5101 20.2116 17.5522 20.4431 17.6364C20.6746 17.7208 21.9165 18.3318 22.169 18.4582C22.2183 18.4829 22.2644 18.5052 22.3072 18.5258Z" fill="#00B027"/>
</svg>
