<svg width="34" height="34" viewBox="0 0 34 34" fill="none" xmlns="http://www.w3.org/2000/svg">
<path fill-rule="evenodd" clip-rule="evenodd" d="M17 0C7.61116 0 0 7.61116 0 17C0 26.3888 7.61116 34 17 34C26.3888 34 34 26.3888 34 17C34 7.61116 26.3888 0 17 0ZM24.0844 11.1558C24.8647 11.3699 25.4792 12.0008 25.6877 12.8019C26.0666 14.2538 26.0666 17.2834 26.0666 17.2834C26.0666 17.2834 26.0666 20.3128 25.6877 21.7648C25.4792 22.566 24.8647 23.1968 24.0844 23.411C22.6705 23.8 17 23.8 17 23.8C17 23.8 11.3295 23.8 9.9154 23.411C9.13515 23.1968 8.52068 22.566 8.31215 21.7648C7.9333 20.3128 7.9333 17.2834 7.9333 17.2834C7.9333 17.2834 7.9333 14.2538 8.31215 12.8019C8.52068 12.0008 9.13515 11.3699 9.9154 11.1558C11.3295 10.7667 17 10.7667 17 10.7667C17 10.7667 22.6705 10.7667 24.0844 11.1558Z" fill="#00B027"/>
<path d="M15.2998 20.3999V14.7333L19.8331 17.5667L15.2998 20.3999Z" fill="#00B027"/>
</svg>
